<?xml version="1.0" encoding="utf-8"?>
<!-- Generator: Adobe Illustrator 18.0.0, SVG Export Plug-In . SVG Version: 6.00 Build 0)  -->
<!DOCTYPE svg PUBLIC "-//W3C//DTD SVG 1.1//EN" "http://www.w3.org/Graphics/SVG/1.1/DTD/svg11.dtd">
<svg version="1.1" id="Layer_1" xmlns="http://www.w3.org/2000/svg" xmlns:xlink="http://www.w3.org/1999/xlink" x="0px" y="0px"
	 width="1400px" height="980px" viewBox="0 0 1400 980" enable-background="new 0 0 1400 980" xml:space="preserve">
<g>
	<polygon fill="#25B228" points="293.5,138.9 241.5,174.7 275.6,266.1 293.5,266.1 311.5,266.1 345.6,174.7 	"/>
	<circle fill="#3CC943" cx="293.5" cy="138.9" r="31.2"/>
	<circle fill="#3CC943" cx="339.2" cy="159.5" r="31.2"/>
	<circle fill="#3CC943" cx="247.9" cy="159.5" r="31.2"/>
	<path fill="#FCB141" d="M346.1,277.7c0,29-23.5,190.8-52.5,190.8S241,306.7,241,277.7s23.5-52.5,52.5-52.5S346.1,248.7,346.1,277.7
		z"/>
	<g>
		<path fill="#3CC943" d="M237.2,137.6c-5.6,1.7-11.6,5.2-13.8,11c-2.6,6.9-2,14.2,2.2,20.3c2.6,3.7,7.7,0.6,5.9-3.5
			c-3.9-8.7-1.6-20.2,6.4-25.8C239,138.9,238.4,137.2,237.2,137.6z"/>
		<path fill="#3CC943" d="M294.8,114c-7.8,0-16.6,4-21.2,10.4c-4.8,6.8-4.8,15.9,1.3,21.7c2.4,2.3,6.3-0.6,4.6-3.6
			c-2.9-5-1.9-10.9,0.8-15.7c3.2-5.6,9.7-8,14.8-11.3C295.9,115.1,295.7,114,294.8,114z"/>
		<path fill="#3CC943" d="M336.3,139.1c-5.6-2-11.7,1.6-15.3,5.8c-4.5,5.2-4.6,13-1.1,18.6c1.7,2.6,5.2,0.8,4.8-2
			c-0.8-4.8-0.3-9.5,2-13.9c2-3.9,6.2-5.7,9.7-7.9C336.6,139.5,336.5,139.2,336.3,139.1z"/>
	</g>
	<g>
		<path fill="#ABEAAD" d="M237.2,136.7c-5.6,1.7-11.6,5.2-13.8,11c-2.6,6.9-2,14.2,2.2,20.3c2.6,3.7,7.7,0.6,5.9-3.5
			c-3.9-8.7-1.6-20.2,6.4-25.8C239,138.1,238.4,136.4,237.2,136.7z"/>
		<path fill="#ABEAAD" d="M294.8,113.2c-7.8,0-16.6,4-21.2,10.4c-4.8,6.8-4.8,15.9,1.3,21.7c2.4,2.3,6.3-0.6,4.6-3.6
			c-2.9-5-1.9-10.9,0.8-15.7c3.2-5.6,9.7-8,14.8-11.3C295.9,114.3,295.7,113.2,294.8,113.2z"/>
		<path fill="#ABEAAD" d="M336.3,138.2c-5.6-2-11.7,1.6-15.3,5.8c-4.5,5.2-4.6,13-1.1,18.6c1.7,2.6,5.2,0.8,4.8-2
			c-0.8-4.8-0.3-9.5,2-13.9c2-3.9,6.2-5.7,9.7-7.9C336.6,138.7,336.5,138.3,336.3,138.2z"/>
	</g>
	<g>
		<path fill="#C98326" d="M309.4,279.1c-3.9,0.4-7.2,1.6-10.9,2.4c-3.7,0.7-7.6,1-11.3,1.5c-3.7,0.6-7.3,1.8-11.1,2.4
			c-0.3,0-0.3,0.6,0,0.7c6.6,1.1,12.9,3.1,19.6,3.7c3.4,0.3,6.4,1.6,9.8,2c3.9,0.4,7.8,0.7,11.7,0.8c9.3,0.4,18.5,0.9,27.8,0.8
			c0.6-6.8,1-12.2,1-15.7c0-0.6,0-1.3,0-1.9c-8.9,0.7-17.8,1.8-26.8,2.5C316,278.5,312.7,278.8,309.4,279.1z"/>
		<path fill="#C98326" d="M314.9,337.5c-3.9,0.4-7.2,1.6-10.9,2.4c-3.7,0.7-7.6,1-11.3,1.5c-3.7,0.6-7.3,1.8-11.1,2.4
			c-0.3,0-0.3,0.6,0,0.7c6.6,1.1,12.9,3.1,19.6,3.7c3.4,0.3,6.4,1.6,9.8,2c3.9,0.4,7.8,0.7,11.7,0.8c4.7,0.2,9.5,0.4,14.2,0.6
			c1-5.6,1.9-11,2.7-16.3c-5,0.5-9.9,1-14.9,1.4C321.5,336.9,318.2,337.2,314.9,337.5z"/>
		<path fill="#C98326" d="M315.8,410.1c-3.7,0.7-7.6,1-11.3,1.5c-3.7,0.6-7.3,1.8-11.1,2.4c-0.3,0-0.3,0.6,0,0.7
			c6.6,1.1,12.9,3.1,19.6,3.7c3,0.3,5.7,1.3,8.6,1.8c1.2-3.9,2.3-8,3.4-12.2C321.9,408.5,319,409.5,315.8,410.1z"/>
		<path fill="#C98326" d="M270.3,316.8c3.9-0.2,7.2-1.5,10.9-2.1c3.7-0.7,7.6-0.9,11.3-1.5c3.7-0.6,7.3-1.9,11.1-2.5
			c0.3-0.1,0.3-0.6,0-0.7c-6.6-0.9-12.9-3-19.6-3.6c-3.5-0.3-6.6-1.7-10.1-2.2c-3.8-0.5-7.6-0.9-11.4-1.2
			c-6.6-0.5-13.1-1.2-19.6-1.9c0.6,5.1,1.3,10.7,2.1,16.7c5.2-0.1,10.4-0.4,15.6-0.6C263.8,317.2,267,317,270.3,316.8z"/>
		<path fill="#C98326" d="M264.8,375.2c3.9-0.2,7.2-1.5,10.9-2.1c3.7-0.7,7.6-0.9,11.3-1.5c3.7-0.6,7.3-1.9,11.1-2.5
			c0.3-0.1,0.3-0.6,0-0.7c-6.6-0.9-12.9-3-19.6-3.6c-3.5-0.3-6.6-1.7-10.1-2.2c-3.8-0.5-7.6-0.9-11.4-1.2c-1.7-0.1-3.4-0.3-5.2-0.5
			c0.9,4.9,1.9,9.8,2.9,14.7c0.1,0,0.2,0,0.3,0C258.3,375.6,261.5,375.4,264.8,375.2z"/>
		<path fill="#C98326" d="M286.3,439.3c0.3-0.1,0.3-0.6,0-0.7c-5.4-0.8-10.6-2.2-15.9-3.1c0.8,2.3,1.6,4.5,2.5,6.6
			c0.8-0.1,1.6-0.2,2.4-0.3C278.9,441.3,282.5,439.9,286.3,439.3z"/>
	</g>
</g>
<g>
	<circle fill="#D82424" cx="759.5" cy="301.2" r="127"/>
	<path fill="#3CC943" d="M866.9,220.6c-22.1-27.5-55-46.8-89.9-52.4c2.1-5.9,3.1-12.3,4.5-18.2c1.8-7.5,3.3-15,4.8-22.5
		c1.5-7.2,3.6-15.7-4.1-20.2c-5.6-3.3-14.6-2.4-20.9-2.4c-3.5,0-7.8,2.6-8.4,6.4c-1.6,10.2-3.2,20.5-4.7,30.7
		c-1.2,8.1-3,16.7-3.4,25c-17.9,1.3-36.8,6-51.7,15.6c-16.3,9.3-29.9,23.1-39.4,39.3c-2.4,4,0.6,9.6,5.4,9.5
		c25.4-0.8,49.6-13.3,65.5-32.9c4.1,19.7,14.6,38,30,51.4c2,1.8,5.5,2.8,7.9,1c12.8-9.5,24.5-21.4,28.6-37.3
		c0.7-2.8,1.1-5.6,1.3-8.4c20.3,17.6,44.3,30.7,72.3,24.2C868.8,228.3,869.2,223.4,866.9,220.6z"/>
	<g>
		<path fill="#F7ACAC" d="M656.5,333.3c-0.7-7.1-2-14-1.9-21.1c0.1-7,1.1-13.9,2.6-20.7c1.5-6.9,3.8-13.8,6.3-20.4
			c2.7-7.2,7.7-13.3,10.3-20.5c3.1-8.5-8.5-13.9-14.3-8.3c-5.6,5.3-9,14-11.8,21c-3.2,7.7-5.2,15.5-6.3,23.8
			c-1.1,7.8-1.3,15.6-0.8,23.5c0.6,8,1.4,16.8,4.2,24.4C646.9,340.7,657.2,340.4,656.5,333.3L656.5,333.3z"/>
	</g>
	<g>
		<path fill="#ABEAAD" d="M669.9,217.1c9.6-8.1,19.3-16.2,30.2-22.5c5.4-3.2,11.2-5.8,17.1-7.9c5.3-1.9,12.4-2,16.7-5.7
			c2.7-2.3,0.9-6.1-1.9-7.2c-5.5-2.2-13.8,1.6-19.1,3.4c-6.8,2.4-13.2,5.6-19.3,9.4c-11.3,7.1-20.6,17-25.8,29.3
			C667.3,217.2,669.1,217.8,669.9,217.1L669.9,217.1z"/>
	</g>
	<g>
		<path fill="#ABEAAD" d="M758.6,117.1c-2.7,5.1-1.9,11.9-2.6,17.6c-0.9,7.6-2.5,14.8-5.1,22c-2.4,6.5,8.3,9.6,10.4,2.9
			c2.4-7.5,3.7-15.2,4.3-23c0.4-6.2,0.3-14.9-3.9-19.8C760.9,115.8,759.2,116,758.6,117.1L758.6,117.1z"/>
	</g>
</g>
<g>
	<path fill="#AA7345" d="M1078.8,350.9c1.2-14.8,4-28.7,9.3-42.5c11.6-29.9,32.7-55.5,52.7-80.1c2.6-3.2,0.9-8.9-2.5-10.7
		c-4.9-2.6-7.9-7.4-12.2-10.8c-4.3-3.4-10-5.8-15.6-4.9c-3.7,0.6-6.6,2.4-9,4.9c-2.8-1.1-6-0.5-8,3.1c-16,28-33,55.2-53.3,80.4
		c-9.6,11.9-21.5,22.8-27.6,37c-5.7,13.5-3.7,27.8-1.2,41.8c2.2,12.4,6.9,26.1,19,31.9c11.9,5.7,25.5,1.2,34.4-7.8
		C1075.6,382,1077.6,365.6,1078.8,350.9z"/>
	<path fill="#6C6C75" d="M1267.8,210c-25.4-43.3-68.9-71.8-113.6-92.2c-3.7-1.7-8.4-1.5-10.7,2.5c-11,19.1-21.8,38.2-32.5,57.3
		c-6.9,10.8-13.7,21.7-20.5,32.6c-2.6,4.1-1.1,9.1,2.7,11.7c8.2,5.6,16.3,11.3,24.5,16.9c3.6,2.5,7.7,6.5,11.9,7.7
		c4.2,1.3,9.8,0.3,14.2,0.5c17.4,0.8,34.7,5.7,50.3,13.3c31,15.1,54.8,41.9,67.4,73.9c2.1,5.4,10.9,5.4,13.5,0.5
		C1295.6,295,1290,247.9,1267.8,210z"/>
	<g>
		<path fill="#4F4949" d="M1129.5,246.6c4.2,1.3,9.8,0.3,14.2,0.5c17.4,0.8,34.7,5.7,50.3,13.3c31,15.1,54.8,41.9,67.4,73.9
			c2.1,5.4,10.9,5.4,13.5,0.5c1.1-2.2,2.1-4.3,3.1-6.5c-1.6-8.9-4.3-17.4-7.7-25.8c-9.7-23.6-27.4-45.7-46.1-62.8
			c-18.3-16.7-41.9-27.7-67-23.3c-10.8,1.9-20.9,7.9-28.1,16.1c-2.5,2.9-4.9,6.3-6.8,9.9C1124.6,244.2,1127.1,245.9,1129.5,246.6z"
			/>
	</g>
	<g>
		<path fill="#8E8383" d="M1120.3,173.5c-1.4,2.5-3.5,5.4-4.2,8.2c-0.8,3.1-0.7,6.3-1.5,9.4c-0.3,1.1,0.9,1.7,1.7,1.1
			c2-1.6,4.6-2.5,6.6-4.1c2.4-1.9,4.3-4.4,6.1-6.8c3.6-4.7,7-9.5,10.5-14.3c7.3-10,14.5-20.3,21-30.9c5-8.2-7.2-15.6-12.6-7.8
			c-6.7,9.6-13,19.7-18.8,29.9C1126.1,163.3,1123.2,168.4,1120.3,173.5z"/>
		<path fill="#D6AC8C" d="M1091,227.2c-7.5,12.7-14.7,25.5-23.3,37.5c-4.5,6.2-9.1,12.4-13.8,18.4c-4.7,6-9.8,11.8-13.3,18.6
			c-1.3,2.6,1.3,6.5,4.3,4.6c12.1-7.9,21-21.5,29-33.3c8.9-13.2,17.5-26.9,24.1-41.5C1100.1,226.9,1093.8,222.5,1091,227.2z"/>
		<path fill="#D6AC8C" d="M1035.6,318.2c0.6-1.7,1.4-3.5,1.7-5.2c0.4-2.3-1.8-4.8-4.2-3.4c-3.6,2-6.9,5.2-9.4,8.4
			c-1.6,2-0.7,4.8,0.6,6.5c-1.1-1.4-0.4-0.6-0.2,0.3c1,4.3,7,5.4,9.4,1.5c1-1.7,1.3-3.5,0.9-5.2
			C1034.8,320.2,1035.2,319.2,1035.6,318.2z"/>
	</g>
</g>
<g>
	<g>
		<path fill="#6C6C75" d="M485.8,697.9c-2.8-10-7.1-19.6-11.7-28.9c-4.4-8.9-8.3-18.9-16.8-24.6c-8.3-5.6-19.9-3.3-28.3,0.6
			c-4.4,2.1-8.4,4.8-12.5,7.5c-2.9,1.9-5.8,3.1-8.9,4.2c-0.6-2.2-1.2-4.3-1.7-6.5c-0.9-3.6-4.3-6-7.9-6c-21-0.2-42.1-0.4-63.1-0.6
			c-10.5-0.1-21-0.2-31.6-0.4c-10.6-0.1-21.6-1-32.1,0.5c-9.2,1.3-14.7,9.1-17.5,17.3c-0.1,0.2-0.1,0.5-0.2,0.7
			c-5.3-2.6-10.8-4.9-16-7.3c-7.8-3.7-15.6-7.5-23.5-10.9c-15.9-6.9-31.7-13.8-47.6-20.7c-0.1,0-0.2-0.1-0.3-0.1
			c-1.5-6.7-5-13.2-7.9-19.2c-2.2-4.5-4.1-9.5-9.2-11.3c-5.7-2-10.1,1.1-13.4,5.6c-6.6,9.1-12,19.3-18,28.8
			c-6.3,10.2-12.7,20.3-19,30.5c-4.2,6.7,2.6,13.4,9.4,12.2c11.4-2.1,23-3.1,34.6-3.2c28.1,25.9,58.1,50.8,90.4,71.4
			c-1.5,5.4-3,10.9-4.5,16.3c-2.1,7.7-4.3,15.4-6.4,23.1c-2.1,7.8-4.5,15.1-2.8,23.2c2.5,12.5,17.1,17.4,27.9,19.9
			c59.7,13.8,123,12.3,182.1-3.8c6.5-1.8,12.9-3.8,19.3-5.9c3.8-1.3,7.2-5.6,5.6-9.9c-2.3-6.1-4.6-12.1-6.9-18.2c4.9-1,9.6-3,13.5-5
			c8.2-4.2,15-11.3,19.9-19C492,740.5,491.3,717.4,485.8,697.9z M468.8,745.8c-2.9,6.5-7.6,12.1-13.5,16c-2.7,1.8-5.6,3.1-8.7,4.1
			c-1.6,0.5-3.2,0.7-4.8,1c-11.3-31.8-21.4-64.1-30.4-96.6c12.1-2,22.2-12.6,34.9-11.9c2.3,0.1,4,2.5,5.1,4.2
			c2.4,3.8,4.3,7.9,6.3,11.9c4.1,8,7.8,16.1,10.6,24.6C473.4,713.8,475.3,731.1,468.8,745.8z"/>
	</g>
	<g>
		<path fill="#4F4949" d="M244.8,734.6c0.1-2.3-0.9-4-2.4-4.9c-0.6-1-1.5-1.8-2.8-2.5c-32.8-17.6-62.1-40.9-86-69.5
			c8.8-8.4,13.5-22.2,17.3-33.1c-1.5-0.6-3-1.3-4.5-1.9c-0.1,0-0.2-0.1-0.3-0.1c-0.3-1.4-0.7-2.8-1.2-4.1c-1.1,0.5-2.1,1.3-2.7,2.7
			c-2.8,6.6-6.4,12.7-9.7,19c-2.5,4.8-5.4,9.3-7.3,14.3c-8.8,1.7-17.5,2.3-26.3,2.9c-7.3,0.5-14.4,1.4-21.5,2.6
			c-0.5,3,1,5.7,3.3,7.5c2,0.7,4.1,1.3,6.2,1.8c0.3,0,0.7-0.1,1-0.1c11.4-2.1,23-3.1,34.6-3.2c28.1,25.9,58.1,50.8,90.4,71.4
			c-1.5,5.4-3,10.9-4.5,16.3c-1.2,4.3-2.4,8.6-3.6,12.9C235.1,758.9,244.3,747.8,244.8,734.6z"/>
		<path fill="#4F4949" d="M429.3,816.2c6.5-1.8,12.9-3.8,19.3-5.9c3.8-1.3,7.2-5.6,5.6-9.9c-2.3-6.1-4.6-12.1-6.9-18.2
			c4.9-1,9.6-3,13.5-5c7.3-3.7,13.4-9.7,18.1-16.4c-3.7-1.2-7.2-3-10.3-5.3c-1.3-1-2.5-2.2-3.6-3.4c-2.7,3.8-6,7.1-9.9,9.7
			c-2.7,1.8-5.6,3.1-8.7,4.1c-1.6,0.5-3.2,0.7-4.8,1c-11.3-31.8-21.4-64.1-30.4-96.6c5.7-0.9,10.9-3.8,16.2-6.4
			c-0.1-0.4-0.3-0.8-0.6-1.3c-0.6-1.2-1.2-2.4-1.8-3.6c-1.2-3.4-1.6-6.9-2.4-10.4c-2.1,1.3-4.2,2.7-6.2,4c-2.9,1.9-5.8,3.1-8.9,4.2
			c-0.6-2.2-1.2-4.3-1.7-6.5c-0.9-3.6-4.3-6-7.9-6c-4.2,0-8.4-0.1-12.6-0.1c1,3.1,2.1,6.2,3.1,9.3c2.6,8.2,5.5,16.4,8.3,24.5
			c5.8,16.9,11.6,33.9,17.5,50.8c5.9,16.9,11.7,33.9,17.6,50.8c2.2,6.3,4.3,12.7,6.4,19.1c-12.8,4-25.6,7.5-38.9,10
			c-21.3,4-43,5.4-64.7,4.9c-21.7-0.5-43.2-3.5-64.3-8.6c-10.4-2.5-20.8-5.5-30.9-9c-5.3-1.8-10.6-3.9-16.2-4.8
			c-1.5-0.2-2.9-0.4-4.4-0.6c-0.4,3.2-0.4,6.4,0.3,9.7c1.6,8,8.2,12.9,15.5,16c2,0.7,3.9,1.5,5.9,2.2c2.2,0.7,4.4,1.3,6.5,1.7
			C306.9,833.7,370.2,832.2,429.3,816.2z"/>
	</g>
	<g>
		<path fill="#8E8383" d="M267.6,652.8c-5.3,10.3-9,22.4-11.8,33.6c-3,12-2.7,24.2-2.3,36.5c0,0.9,1.4,1.4,1.8,0.5
			c4.7-10.4,10.6-20.4,14.4-31.2c3.9-11.1,8.7-22.2,12.2-33.4C284.4,650.4,271.6,644.9,267.6,652.8z"/>
		<path fill="#8E8383" d="M141.8,595.7c-6.7,8.5-12.7,17.5-18.7,26.5c-5.9,8.8-11.6,17.8-13.7,28.4c-0.1,0.7,0.6,1.4,1.2,1
			c8.6-5.8,14.5-14,20.2-22.5c6.1-9.2,12.3-18.4,17.7-28C150.8,596.7,144.9,591.7,141.8,595.7z"/>
		<path fill="#8E8383" d="M242.5,659.7c-7.6-4.9-16.5-8.3-24.8-11.8c-8.1-3.4-16.5-6.8-25.4-6.4c-0.6,0-0.9,0.7-0.5,1.1
			c6.3,6.3,14.6,9.8,22.4,13.6c8.2,3.9,16.2,8.6,24.7,12C244,670.2,246.8,662.4,242.5,659.7z"/>
	</g>
</g>
<g>
	<path fill="#FDECD2" d="M869.5,728.4c0,67.9-47.9,108-107,108s-107-40.1-107-108s47.9-138,107-138S869.5,660.5,869.5,728.4z"/>
	<path fill="#FFFFFF" d="M684.8,684c4.8-6.3,8.3-13.9,12.6-20.6c4.4-6.6,9.2-12.9,14.6-18.8c5.4-5.8,11.3-11.1,17.7-15.8
		c6.6-4.8,14.1-8,20.8-12.4c7.3-4.8,2.8-17.3-6.1-14.5c-8.2,2.6-15.9,8-22.8,13c-7.5,5.5-14.5,11.7-20.8,18.5
		c-6.3,6.8-11.9,14.3-16.5,22.3c-4.3,7.5-8.6,16.9-9.2,25.6C674.7,687.1,682.1,687.6,684.8,684z"/>
	<g>
		<path fill="#DBC2A0" d="M762.5,836.4c59.1,0,107-40.1,107-108c0-29.5-9-59.3-24.1-83.7c0.6,4.8,1,9.6,1.7,14.3
			c1.2,8.2,3,16.3,4.2,24.5c2.2,14.7,2.8,29.6,1.1,44.3c-3.1,27-15,50.7-37.4,66.7c-23,16.4-52.2,25.2-80.3,23
			c-22.9-1.8-43.7-13.4-62-26.8C691.7,820.1,724.9,836.4,762.5,836.4z"/>
	</g>
</g>
<g>
	<path fill="#D82424" d="M1161,593.7L1161,593.7c-62.5,0-113.2,41.5-113.2,92.7v150.1c0,8.7,8.6,15.7,19.1,15.7H1255
		c10.6,0,19.1-7,19.1-15.7V686.4C1274.1,635.2,1223.5,593.7,1161,593.7z"/>
	<g>
		<path fill="#E26A6A" d="M1161,593.7L1161,593.7c-4.3,0-8.5,0.2-12.6,0.6v257.9h25.2V594.3C1169.4,593.9,1165.2,593.7,1161,593.7z"
			/>
		<path fill="#E26A6A" d="M1211.6,603.5v248.7h25.2V617.6C1229.3,612,1220.8,607.3,1211.6,603.5z"/>
		<path fill="#E26A6A" d="M1090.3,614v238.2h25.2V601.5C1106.4,604.7,1098,608.9,1090.3,614z"/>
	</g>
	<path fill="#111216" d="M1161,707.7L1161,707.7c-34.9,0-63.3,23.2-63.3,51.8v83.9c0,4.8,4.8,8.8,10.7,8.8h105.1
		c5.9,0,10.7-3.9,10.7-8.8v-83.9C1224.2,730.9,1195.9,707.7,1161,707.7z"/>
	<g>
		<path fill="#5C3B1C" d="M1000.6,703.7L988,689.6c-12.3-13.8-11-35,2.8-47.3L1139,510.7c12.9-11.5,32.4-11.5,45.3,0l146.7,130.4
			c13.8,12.3,15.1,33.4,2.8,47.3l-12.5,14.1c-10.1,11.3-27.4,12.4-38.8,2.3l-109.2-97c-6.7-5.9-16.8-5.9-23.4,0L1039.4,706
			C1028,716.1,1010.7,715,1000.6,703.7z"/>
	</g>
</g>
</svg>
