<svg xmlns="http://www.w3.org/2000/svg" xmlns:xlink="http://www.w3.org/1999/xlink" version="1.1" width="334.61544268229704" height="339.07693171077904" enable-background="new 0 0 1400 980" xml:space="preserve"><rect id="backgroundrect" width="100%" height="100%" x="0" y="0" fill="none" stroke="none"/>






<g class="currentLayer" style=""><title>Layer 1</title><g id="svg_31" class="">
	<path fill="#AA7345" d="M98.8000610351562,261.66923370361326 c1.2,-14.8 4,-28.7 9.3,-42.5 c11.6,-29.9 32.7,-55.5 52.7,-80.1 c2.6,-3.2 0.9,-8.9 -2.5,-10.7 c-4.9,-2.6 -7.9,-7.4 -12.2,-10.8 c-4.3,-3.4 -10,-5.8 -15.6,-4.9 c-3.7,0.6000000000000001 -6.6,2.4 -9,4.9 c-2.8,-1.1 -6,-0.5 -8,3.1 c-16,28 -33,55.2 -53.3,80.4 c-9.6,11.9 -21.5,22.8 -27.6,37 c-5.7,13.5 -3.7,27.8 -1.2,41.8 c2.2,12.4 6.9,26.1 19,31.9 c11.9,5.7 25.5,1.2 34.4,-7.8 C95.60006103515616,292.7692337036133 97.60006103515616,276.3692337036133 98.8000610351562,261.66923370361326 z" id="svg_32"/>
	<path fill="#6C6C75" d="M287.8000610351562,120.76923370361328 c-25.4,-43.3 -68.9,-71.8 -113.6,-92.2 c-3.7,-1.7000000000000002 -8.4,-1.5 -10.7,2.5 c-11,19.1 -21.8,38.2 -32.5,57.3 c-6.9,10.8 -13.7,21.7 -20.5,32.6 c-2.6,4.1 -1.1,9.1 2.7,11.7 c8.2,5.6 16.3,11.3 24.5,16.9 c3.6,2.5 7.7,6.5 11.9,7.7 c4.2,1.3 9.8,0.30000000000000004 14.2,0.5 c17.4,0.8 34.7,5.7 50.3,13.3 c31,15.1 54.8,41.9 67.4,73.9 c2.1,5.4 10.9,5.4 13.5,0.5 C315.60006103515616,205.76923370361328 310.00006103515625,158.6692337036133 287.8000610351562,120.76923370361328 z" id="svg_33"/>
	<g id="svg_34">
		<path fill="#4F4949" d="M149.50006103515625,157.36923370361328 c4.2,1.3 9.8,0.30000000000000004 14.2,0.5 c17.4,0.8 34.7,5.7 50.3,13.3 c31,15.1 54.8,41.9 67.4,73.9 c2.1,5.4 10.9,5.4 13.5,0.5 c1.1,-2.2 2.1,-4.3 3.1,-6.5 c-1.6,-8.9 -4.3,-17.4 -7.7,-25.8 c-9.7,-23.6 -27.4,-45.7 -46.1,-62.8 c-18.3,-16.7 -41.9,-27.7 -67,-23.3 c-10.8,1.9 -20.9,7.9 -28.1,16.1 c-2.5,2.9 -4.9,6.3 -6.8,9.9 C144.60006103515616,154.96923370361327 147.10006103515616,156.6692337036133 149.50006103515625,157.36923370361328 z" id="svg_35"/>
	</g>
	<g id="svg_36">
		<path fill="#8E8383" d="M140.3000610351562,84.26923370361328 c-1.4,2.5 -3.5,5.4 -4.2,8.2 c-0.8,3.1 -0.7000000000000001,6.3 -1.5,9.4 c-0.30000000000000004,1.1 0.9,1.7000000000000002 1.7000000000000002,1.1 c2,-1.6 4.6,-2.5 6.6,-4.1 c2.4,-1.9 4.3,-4.4 6.1,-6.8 c3.6,-4.7 7,-9.5 10.5,-14.3 c7.3,-10 14.5,-20.3 21,-30.9 c5,-8.2 -7.2,-15.6 -12.6,-7.8 c-6.7,9.6 -13,19.7 -18.8,29.9 C146.10006103515616,74.06923370361329 143.2000610351563,79.16923370361329 140.3000610351562,84.26923370361328 z" id="svg_37"/>
		<path fill="#D6AC8C" d="M111.00006103515625,137.96923370361327 c-7.5,12.7 -14.7,25.5 -23.3,37.5 c-4.5,6.2 -9.1,12.4 -13.8,18.4 c-4.7,6 -9.8,11.8 -13.3,18.6 c-1.3,2.6 1.3,6.5 4.3,4.6 c12.1,-7.9 21,-21.5 29,-33.3 c8.9,-13.2 17.5,-26.9 24.1,-41.5 C120.10006103515616,137.6692337036133 113.8000610351562,133.26923370361328 111.00006103515625,137.96923370361327 z" id="svg_38"/>
		<path fill="#D6AC8C" d="M55.60006103515616,228.96923370361327 c0.6000000000000001,-1.7000000000000002 1.4,-3.5 1.7000000000000002,-5.2 c0.4,-2.3 -1.8,-4.8 -4.2,-3.4 c-3.6,2 -6.9,5.2 -9.4,8.4 c-1.6,2 -0.7000000000000001,4.8 0.6000000000000001,6.5 c-1.1,-1.4 -0.4,-0.6000000000000001 -0.2,0.30000000000000004 c1,4.3 7,5.4 9.4,1.5 c1,-1.7000000000000002 1.3,-3.5 0.9,-5.2 C54.800061035156205,230.96923370361327 55.200061035156295,229.96923370361327 55.60006103515616,228.96923370361327 z" id="svg_39"/>
	</g>
</g></g></svg>