<svg xmlns="http://www.w3.org/2000/svg" xmlns:xlink="http://www.w3.org/1999/xlink" version="1.1" width="433.8462070036185" height="284.6154228752155" enable-background="new 0 0 1400 980" xml:space="preserve"><rect id="backgroundrect" width="100%" height="100%" x="0" y="0" fill="none" stroke="none" class="selected" style=""/>






<g class="currentLayer" style=""><title>Layer 1</title><g id="svg_40" class="">
	<g id="svg_41">
		<path fill="#6C6C75" d="M404.261540222168,127.13077392578123 c-2.8,-10 -7.1,-19.6 -11.7,-28.9 c-4.4,-8.9 -8.3,-18.9 -16.8,-24.6 c-8.3,-5.6 -19.9,-3.3 -28.3,0.6000000000000001 c-4.4,2.1 -8.4,4.8 -12.5,7.5 c-2.9,1.9 -5.8,3.1 -8.9,4.2 c-0.6000000000000001,-2.2 -1.2,-4.3 -1.7000000000000002,-6.5 c-0.9,-3.6 -4.3,-6 -7.9,-6 c-21,-0.2 -42.1,-0.4 -63.1,-0.6000000000000001 c-10.5,-0.1 -21,-0.2 -31.6,-0.4 c-10.6,-0.1 -21.6,-1 -32.1,0.5 c-9.2,1.3 -14.7,9.1 -17.5,17.3 c-0.1,0.2 -0.1,0.5 -0.2,0.7000000000000001 c-5.3,-2.6 -10.8,-4.9 -16,-7.3 c-7.8,-3.7 -15.6,-7.5 -23.5,-10.9 c-15.9,-6.9 -31.7,-13.8 -47.6,-20.7 c-0.1,0 -0.2,-0.1 -0.30000000000000004,-0.1 c-1.5,-6.7 -5,-13.2 -7.9,-19.2 c-2.2,-4.5 -4.1,-9.5 -9.2,-11.3 c-5.7,-2 -10.1,1.1 -13.4,5.6 c-6.6,9.1 -12,19.3 -18,28.8 c-6.3,10.2 -12.7,20.3 -19,30.5 c-4.2,6.7 2.6,13.4 9.4,12.2 c11.4,-2.1 23,-3.1 34.6,-3.2 c28.1,25.9 58.1,50.8 90.4,71.4 c-1.5,5.4 -3,10.9 -4.5,16.3 c-2.1,7.7 -4.3,15.4 -6.4,23.1 c-2.1,7.8 -4.5,15.1 -2.8,23.2 c2.5,12.5 17.1,17.4 27.9,19.9 c59.7,13.8 123,12.3 182.1,-3.8 c6.5,-1.8 12.9,-3.8 19.3,-5.9 c3.8,-1.3 7.2,-5.6 5.6,-9.9 c-2.3,-6.1 -4.6,-12.1 -6.9,-18.2 c4.9,-1 9.6,-3 13.5,-5 c8.2,-4.2 15,-11.3 19.9,-19 C410.46154022216797,169.73077392578125 409.761540222168,146.63077392578123 404.261540222168,127.13077392578123 zM387.261540222168,175.0307739257812 c-2.9,6.5 -7.6,12.1 -13.5,16 c-2.7,1.8 -5.6,3.1 -8.7,4.1 c-1.6,0.5 -3.2,0.7000000000000001 -4.8,1 c-11.3,-31.8 -21.4,-64.1 -30.4,-96.6 c12.1,-2 22.2,-12.6 34.9,-11.9 c2.3,0.1 4,2.5 5.1,4.2 c2.4,3.8 4.3,7.9 6.3,11.9 c4.1,8 7.8,16.1 10.6,24.6 C391.86154022216795,143.0307739257812 393.761540222168,160.33077392578127 387.261540222168,175.0307739257812 z" id="svg_42"/>
	</g>
	<g id="svg_43">
		<path fill="#4F4949" d="M163.26154022216798,163.83077392578127 c0.1,-2.3 -0.9,-4 -2.4,-4.9 c-0.6000000000000001,-1 -1.5,-1.8 -2.8,-2.5 c-32.8,-17.6 -62.1,-40.9 -86,-69.5 c8.8,-8.4 13.5,-22.2 17.3,-33.1 c-1.5,-0.6000000000000001 -3,-1.3 -4.5,-1.9 c-0.1,0 -0.2,-0.1 -0.30000000000000004,-0.1 c-0.30000000000000004,-1.4 -0.7000000000000001,-2.8 -1.2,-4.1 c-1.1,0.5 -2.1,1.3 -2.7,2.7 c-2.8,6.6 -6.4,12.7 -9.7,19 c-2.5,4.8 -5.4,9.3 -7.3,14.3 c-8.8,1.7000000000000002 -17.5,2.3 -26.3,2.9 c-7.3,0.5 -14.4,1.4 -21.5,2.6 c-0.5,3 1,5.7 3.3,7.5 c2,0.7000000000000001 4.1,1.3 6.2,1.8 c0.30000000000000004,0 0.7000000000000001,-0.1 1,-0.1 c11.4,-2.1 23,-3.1 34.6,-3.2 c28.1,25.9 58.1,50.8 90.4,71.4 c-1.5,5.4 -3,10.9 -4.5,16.3 c-1.2,4.3 -2.4,8.6 -3.6,12.9 C153.56154022216796,188.13077392578123 162.76154022216798,177.0307739257812 163.26154022216798,163.83077392578127 z" id="svg_44"/>
		<path fill="#4F4949" d="M347.761540222168,245.4307739257813 c6.5,-1.8 12.9,-3.8 19.3,-5.9 c3.8,-1.3 7.2,-5.6 5.6,-9.9 c-2.3,-6.1 -4.6,-12.1 -6.9,-18.2 c4.9,-1 9.6,-3 13.5,-5 c7.3,-3.7 13.4,-9.7 18.1,-16.4 c-3.7,-1.2 -7.2,-3 -10.3,-5.3 c-1.3,-1 -2.5,-2.2 -3.6,-3.4 c-2.7,3.8 -6,7.1 -9.9,9.7 c-2.7,1.8 -5.6,3.1 -8.7,4.1 c-1.6,0.5 -3.2,0.7000000000000001 -4.8,1 c-11.3,-31.8 -21.4,-64.1 -30.4,-96.6 c5.7,-0.9 10.9,-3.8 16.2,-6.4 c-0.1,-0.4 -0.30000000000000004,-0.8 -0.6000000000000001,-1.3 c-0.6000000000000001,-1.2 -1.2,-2.4 -1.8,-3.6 c-1.2,-3.4 -1.6,-6.9 -2.4,-10.4 c-2.1,1.3 -4.2,2.7 -6.2,4 c-2.9,1.9 -5.8,3.1 -8.9,4.2 c-0.6000000000000001,-2.2 -1.2,-4.3 -1.7000000000000002,-6.5 c-0.9,-3.6 -4.3,-6 -7.9,-6 c-4.2,0 -8.4,-0.1 -12.6,-0.1 c1,3.1 2.1,6.2 3.1,9.3 c2.6,8.2 5.5,16.4 8.3,24.5 c5.8,16.9 11.6,33.9 17.5,50.8 c5.9,16.9 11.7,33.9 17.6,50.8 c2.2,6.3 4.3,12.7 6.4,19.1 c-12.8,4 -25.6,7.5 -38.9,10 c-21.3,4 -43,5.4 -64.7,4.9 c-21.7,-0.5 -43.2,-3.5 -64.3,-8.6 c-10.4,-2.5 -20.8,-5.5 -30.9,-9 c-5.3,-1.8 -10.6,-3.9 -16.2,-4.8 c-1.5,-0.2 -2.9,-0.4 -4.4,-0.6000000000000001 c-0.4,3.2 -0.4,6.4 0.30000000000000004,9.7 c1.6,8 8.2,12.9 15.5,16 c2,0.7000000000000001 3.9,1.5 5.9,2.2 c2.2,0.7000000000000001 4.4,1.3 6.5,1.7000000000000002 C225.36154022216795,262.9307739257813 288.66154022216796,261.4307739257813 347.761540222168,245.4307739257813 z" id="svg_45"/>
	</g>
	<g id="svg_46">
		<path fill="#8E8383" d="M186.061540222168,82.0307739257812 c-5.3,10.3 -9,22.4 -11.8,33.6 c-3,12 -2.7,24.2 -2.3,36.5 c0,0.9 1.4,1.4 1.8,0.5 c4.7,-10.4 10.6,-20.4 14.4,-31.2 c3.9,-11.1 8.7,-22.2 12.2,-33.4 C202.86154022216795,79.63077392578123 190.061540222168,74.13077392578123 186.061540222168,82.0307739257812 z" id="svg_47"/>
		<path fill="#8E8383" d="M60.26154022216798,24.930773925781295 c-6.7,8.5 -12.7,17.5 -18.7,26.5 c-5.9,8.8 -11.6,17.8 -13.7,28.4 c-0.1,0.7000000000000001 0.6000000000000001,1.4 1.2,1 c8.6,-5.8 14.5,-14 20.2,-22.5 c6.1,-9.2 12.3,-18.4 17.7,-28 C69.26154022216798,25.930773925781295 63.361540222167974,20.930773925781295 60.26154022216798,24.930773925781295 z" id="svg_48"/>
		<path fill="#8E8383" d="M160.96154022216797,88.9307739257813 c-7.6,-4.9 -16.5,-8.3 -24.8,-11.8 c-8.1,-3.4 -16.5,-6.8 -25.4,-6.4 c-0.6000000000000001,0 -0.9,0.7000000000000001 -0.5,1.1 c6.3,6.3 14.6,9.8 22.4,13.6 c8.2,3.9 16.2,8.6 24.7,12 C162.46154022216797,99.4307739257813 165.26154022216798,91.63077392578123 160.96154022216797,88.9307739257813 z" id="svg_49"/>
	</g>
</g></g></svg>