<svg xmlns="http://www.w3.org/2000/svg" xmlns:xlink="http://www.w3.org/1999/xlink" version="1.1" width="406.1539008349323" height="401.538493365224" enable-background="new 0 0 1400 980" xml:space="preserve"><rect id="backgroundrect" width="100%" height="100%" x="0" y="0" fill="none" stroke="none" class="selected" style=""/>






<g class="currentLayer" style=""><title>Layer 1</title><g id="svg_55" class="">
	<path fill="#D82424" d="M201.00006103515625,116.77693481445317 L201.00006103515625,116.77693481445317 c-62.5,0 -113.2,41.5 -113.2,92.7 v150.1 c0,8.7 8.6,15.7 19.1,15.7 H295.00006103515625 c10.6,0 19.1,-7 19.1,-15.7 V209.4769348144531 C314.10006103515616,158.27693481445317 263.50006103515625,116.77693481445317 201.00006103515625,116.77693481445317 z" id="svg_56"/>
	<g id="svg_57">
		<path fill="#E26A6A" d="M201.00006103515625,116.77693481445317 L201.00006103515625,116.77693481445317 c-4.3,0 -8.5,0.2 -12.6,0.6000000000000001 v257.9 h25.2 V117.37693481445308 C209.40006103515634,116.9769348144531 205.2000610351563,116.77693481445317 201.00006103515625,116.77693481445317 z" id="svg_58"/>
		<path fill="#E26A6A" d="M251.60006103515616,126.57693481445312 v248.7 h25.2 V140.67693481445315 C269.3000610351562,135.07693481445312 260.8000610351562,130.37693481445308 251.60006103515616,126.57693481445312 z" id="svg_59"/>
		<path fill="#E26A6A" d="M130.3000610351562,137.07693481445312 v238.2 h25.2 V124.57693481445312 C146.40006103515634,127.77693481445317 138.00006103515625,131.9769348144531 130.3000610351562,137.07693481445312 z" id="svg_60"/>
	</g>
	<path fill="#111216" d="M201.00006103515625,230.77693481445317 L201.00006103515625,230.77693481445317 c-34.9,0 -63.3,23.2 -63.3,51.8 v83.9 c0,4.8 4.8,8.8 10.7,8.8 h105.1 c5.9,0 10.7,-3.9 10.7,-8.8 v-83.9 C264.2000610351563,253.9769348144531 235.90006103515634,230.77693481445317 201.00006103515625,230.77693481445317 z" id="svg_61"/>
	<g id="svg_62">
		<path fill="#5C3B1C" d="M40.60006103515627,226.77693481445317 L28.00006103515625,212.67693481445315 c-12.3,-13.8 -11,-35 2.8,-47.3 L179.00006103515625,33.776934814453114 c12.9,-11.5 32.4,-11.5 45.3,0 l146.7,130.4 c13.8,12.3 15.1,33.4 2.8,47.3 l-12.5,14.1 c-10.1,11.3 -27.4,12.4 -38.8,2.3 l-109.2,-97 c-6.7,-5.9 -16.8,-5.9 -23.4,0 L79.40006103515634,229.07693481445312 C68.00006103515625,239.17693481445315 50.700061035156295,238.07693481445312 40.60006103515627,226.77693481445317 z" id="svg_63"/>
	</g>
</g></g></svg>