<svg xmlns="http://www.w3.org/2000/svg" xmlns:xlink="http://www.w3.org/1999/xlink" version="1.1" width="283.0769845296611" height="349.23080393548344" enable-background="new 0 0 1400 980" xml:space="preserve"><rect id="backgroundrect" width="100%" height="100%" x="0" y="0" fill="none" stroke="none" class="selected" style=""/>






<g class="currentLayer" style=""><title>Layer 1</title><g id="svg_22" class="">
	<circle fill="#D82424" cx="139.50006103515625" cy="205.81539916992188" r="127" id="svg_23"/>
	<path fill="#3CC943" d="M246.90006103515623,125.21538696289062 c-22.1,-27.5 -55,-46.8 -89.9,-52.4 c2.1,-5.9 3.1,-12.3 4.5,-18.2 c1.8,-7.5 3.3,-15 4.8,-22.5 c1.5,-7.2 3.6,-15.7 -4.1,-20.2 c-5.6,-3.3 -14.6,-2.4 -20.9,-2.4 c-3.5,0 -7.8,2.6 -8.4,6.4 c-1.6,10.2 -3.2,20.5 -4.7,30.7 c-1.2,8.1 -3,16.7 -3.4,25 c-17.9,1.3 -36.8,6 -51.7,15.6 c-16.3,9.3 -29.9,23.1 -39.4,39.3 c-2.4,4 0.6000000000000001,9.6 5.4,9.5 c25.4,-0.8 49.6,-13.3 65.5,-32.9 c4.1,19.7 14.6,38 30,51.4 c2,1.8 5.5,2.8 7.9,1 c12.8,-9.5 24.5,-21.4 28.6,-37.3 c0.7000000000000001,-2.8 1.1,-5.6 1.3,-8.4 c20.3,17.6 44.3,30.7 72.3,24.2 C248.8000610351562,132.91538696289064 249.2000610351563,128.01538696289063 246.90006103515623,125.21538696289062 z" id="svg_24"/>
	<g id="svg_25">
		<path fill="#F7ACAC" d="M36.50006103515625,237.91538696289064 c-0.7000000000000001,-7.1 -2,-14 -1.9,-21.1 c0.1,-7 1.1,-13.9 2.6,-20.7 c1.5,-6.9 3.8,-13.8 6.3,-20.4 c2.7,-7.2 7.7,-13.3 10.3,-20.5 c3.1,-8.5 -8.5,-13.9 -14.3,-8.3 c-5.6,5.3 -9,14 -11.8,21 c-3.2,7.7 -5.2,15.5 -6.3,23.8 c-1.1,7.8 -1.3,15.6 -0.8,23.5 c0.6000000000000001,8 1.4,16.8 4.2,24.4 C26.900061035156227,245.3153869628906 37.200061035156295,245.0153869628906 36.50006103515625,237.91538696289064 L36.50006103515625,237.91538696289064 z" id="svg_26"/>
	</g>
	<g id="svg_27">
		<path fill="#ABEAAD" d="M49.90006103515623,121.71538696289062 c9.6,-8.1 19.3,-16.2 30.2,-22.5 c5.4,-3.2 11.2,-5.8 17.1,-7.9 c5.3,-1.9 12.4,-2 16.7,-5.7 c2.7,-2.3 0.9,-6.1 -1.9,-7.2 c-5.5,-2.2 -13.8,1.6 -19.1,3.4 c-6.8,2.4 -13.2,5.6 -19.3,9.4 c-11.3,7.1 -20.6,17 -25.8,29.3 C47.300061035156205,121.81538696289061 49.10006103515627,122.41538696289064 49.90006103515623,121.71538696289062 L49.90006103515623,121.71538696289062 z" id="svg_28"/>
	</g>
	<g id="svg_29">
		<path fill="#ABEAAD" d="M138.60006103515627,21.71538696289062 c-2.7,5.1 -1.9,11.9 -2.6,17.6 c-0.9,7.6 -2.5,14.8 -5.1,22 c-2.4,6.5 8.3,9.6 10.4,2.9 c2.4,-7.5 3.7,-15.2 4.3,-23 c0.4,-6.2 0.30000000000000004,-14.9 -3.9,-19.8 C140.90006103515623,20.415386962890622 139.2000610351563,20.615386962890625 138.60006103515627,21.71538696289062 L138.60006103515627,21.71538696289062 z" id="svg_30"/>
	</g>
</g></g></svg>