<svg xmlns="http://www.w3.org/2000/svg" xmlns:xlink="http://www.w3.org/1999/xlink" version="1.1" width="175.38468276254866" height="386.153878827065" enable-background="new 0 0 1400 980" xml:space="preserve" style=""><rect id="backgroundrect" width="100%" height="100%" x="0" y="0" fill="none" stroke="none" class="selected" style=""/>






<g class="currentLayer" style=""><title>Layer 1</title><g id="svg_1" class="">
	<polygon fill="#25B228" points="87.34616088867188,40.43846130371094 35.346160888671875,76.23846435546875 69.4461669921875,167.6384735107422 87.34616088867188,167.6384735107422 105.34616088867188,167.6384735107422 139.4461669921875,76.23846435546875 " id="svg_2"/>
	<circle fill="#3CC943" cx="87.34616088867188" cy="40.43846130371094" r="31.200000762939453" id="svg_3"/>
	<circle fill="#3CC943" cx="133.04617309570312" cy="61.03846740722656" r="31.200000762939453" id="svg_4"/>
	<circle fill="#3CC943" cx="41.74615478515625" cy="61.03846740722656" r="31.200000762939453" id="svg_5"/>
	<path fill="#FCB141" d="M139.9461608886719,179.23846740722655 c0,29 -23.5,190.8 -52.5,190.8 S34.846160888671875,208.23846740722655 34.846160888671875,179.23846740722655 s23.5,-52.5 52.5,-52.5 S139.9461608886719,150.23846740722655 139.9461608886719,179.23846740722655 z" id="svg_6"/>
	<g id="svg_7">
		<path fill="#3CC943" d="M31.046160888671864,39.13846740722656 c-5.6,1.7000000000000002 -11.6,5.2 -13.8,11 c-2.6,6.9 -2,14.2 2.2,20.3 c2.6,3.7 7.7,0.6000000000000001 5.9,-3.5 c-3.9,-8.7 -1.6,-20.2 6.4,-25.8 C32.846160888671875,40.43846740722657 32.24616088867188,38.73846740722655 31.046160888671864,39.13846740722656 z" id="svg_8"/>
		<path fill="#3CC943" d="M88.64616088867189,15.538467407226562 c-7.8,0 -16.6,4 -21.2,10.4 c-4.8,6.8 -4.8,15.9 1.3,21.7 c2.4,2.3 6.3,-0.6000000000000001 4.6,-3.6 c-2.9,-5 -1.9,-10.9 0.8,-15.7 c3.2,-5.6 9.7,-8 14.8,-11.3 C89.74616088867185,16.638467407226557 89.54616088867186,15.538467407226562 88.64616088867189,15.538467407226562 z" id="svg_9"/>
		<path fill="#3CC943" d="M130.1461608886719,40.63846740722656 c-5.6,-2 -11.7,1.6 -15.3,5.8 c-4.5,5.2 -4.6,13 -1.1,18.6 c1.7000000000000002,2.6 5.2,0.8 4.8,-2 c-0.8,-4.8 -0.30000000000000004,-9.5 2,-13.9 c2,-3.9 6.2,-5.7 9.7,-7.9 C130.4461608886719,41.03846740722656 130.34616088867188,40.73846740722655 130.1461608886719,40.63846740722656 z" id="svg_10"/>
	</g>
	<g id="svg_11">
		<path fill="#ABEAAD" d="M31.046160888671864,38.23846740722655 c-5.6,1.7000000000000002 -11.6,5.2 -13.8,11 c-2.6,6.9 -2,14.2 2.2,20.3 c2.6,3.7 7.7,0.6000000000000001 5.9,-3.5 c-3.9,-8.7 -1.6,-20.2 6.4,-25.8 C32.846160888671875,39.63846740722656 32.24616088867188,37.93846740722657 31.046160888671864,38.23846740722655 z" id="svg_12"/>
		<path fill="#ABEAAD" d="M88.64616088867189,14.738467407226565 c-7.8,0 -16.6,4 -21.2,10.4 c-4.8,6.8 -4.8,15.9 1.3,21.7 c2.4,2.3 6.3,-0.6000000000000001 4.6,-3.6 c-2.9,-5 -1.9,-10.9 0.8,-15.7 c3.2,-5.6 9.7,-8 14.8,-11.3 C89.74616088867185,15.83846740722656 89.54616088867186,14.738467407226565 88.64616088867189,14.738467407226565 z" id="svg_13"/>
		<path fill="#ABEAAD" d="M130.1461608886719,39.73846740722655 c-5.6,-2 -11.7,1.6 -15.3,5.8 c-4.5,5.2 -4.6,13 -1.1,18.6 c1.7000000000000002,2.6 5.2,0.8 4.8,-2 c-0.8,-4.8 -0.30000000000000004,-9.5 2,-13.9 c2,-3.9 6.2,-5.7 9.7,-7.9 C130.4461608886719,40.23846740722655 130.34616088867188,39.838467407226574 130.1461608886719,39.73846740722655 z" id="svg_14"/>
	</g>
	<g id="svg_15">
		<path fill="#C98326" d="M103.24616088867185,180.63846740722659 c-3.9,0.4 -7.2,1.6 -10.9,2.4 c-3.7,0.7000000000000001 -7.6,1 -11.3,1.5 c-3.7,0.6000000000000001 -7.3,1.8 -11.1,2.4 c-0.30000000000000004,0 -0.30000000000000004,0.6000000000000001 0,0.7000000000000001 c6.6,1.1 12.9,3.1 19.6,3.7 c3.4,0.30000000000000004 6.4,1.6 9.8,2 c3.9,0.4 7.8,0.7000000000000001 11.7,0.8 c9.3,0.4 18.5,0.9 27.8,0.8 c0.6000000000000001,-6.8 1,-12.2 1,-15.7 c0,-0.6000000000000001 0,-1.3 0,-1.9 c-8.9,0.7000000000000001 -17.8,1.8 -26.8,2.5 C109.84616088867188,180.03846740722656 106.54616088867186,180.33846740722657 103.24616088867185,180.63846740722659 z" id="svg_16"/>
		<path fill="#C98326" d="M108.74616088867185,239.03846740722656 c-3.9,0.4 -7.2,1.6 -10.9,2.4 c-3.7,0.7000000000000001 -7.6,1 -11.3,1.5 c-3.7,0.6000000000000001 -7.3,1.8 -11.1,2.4 c-0.30000000000000004,0 -0.30000000000000004,0.6000000000000001 0,0.7000000000000001 c6.6,1.1 12.9,3.1 19.6,3.7 c3.4,0.30000000000000004 6.4,1.6 9.8,2 c3.9,0.4 7.8,0.7000000000000001 11.7,0.8 c4.7,0.2 9.5,0.4 14.2,0.6000000000000001 c1,-5.6 1.9,-11 2.7,-16.3 c-5,0.5 -9.9,1 -14.9,1.4 C115.34616088867188,238.43846740722654 112.04616088867186,238.73846740722655 108.74616088867185,239.03846740722656 z" id="svg_17"/>
		<path fill="#C98326" d="M109.64616088867189,311.6384674072266 c-3.7,0.7000000000000001 -7.6,1 -11.3,1.5 c-3.7,0.6000000000000001 -7.3,1.8 -11.1,2.4 c-0.30000000000000004,0 -0.30000000000000004,0.6000000000000001 0,0.7000000000000001 c6.6,1.1 12.9,3.1 19.6,3.7 c3,0.30000000000000004 5.7,1.3 8.6,1.8 c1.2,-3.9 2.3,-8 3.4,-12.2 C115.74616088867185,310.03846740722656 112.84616088867188,311.03846740722656 109.64616088867189,311.6384674072266 z" id="svg_18"/>
		<path fill="#C98326" d="M64.14616088867189,218.33846740722657 c3.9,-0.2 7.2,-1.5 10.9,-2.1 c3.7,-0.7000000000000001 7.6,-0.9 11.3,-1.5 c3.7,-0.6000000000000001 7.3,-1.9 11.1,-2.5 c0.30000000000000004,-0.1 0.30000000000000004,-0.6000000000000001 0,-0.7000000000000001 c-6.6,-0.9 -12.9,-3 -19.6,-3.6 c-3.5,-0.30000000000000004 -6.6,-1.7000000000000002 -10.1,-2.2 c-3.8,-0.5 -7.6,-0.9 -11.4,-1.2 c-6.6,-0.5 -13.1,-1.2 -19.6,-1.9 c0.6000000000000001,5.1 1.3,10.7 2.1,16.7 c5.2,-0.1 10.4,-0.4 15.6,-0.6000000000000001 C57.646160888671886,218.73846740722655 60.846160888671875,218.53846740722656 64.14616088867189,218.33846740722657 z" id="svg_19"/>
		<path fill="#C98326" d="M58.646160888671886,276.73846740722655 c3.9,-0.2 7.2,-1.5 10.9,-2.1 c3.7,-0.7000000000000001 7.6,-0.9 11.3,-1.5 c3.7,-0.6000000000000001 7.3,-1.9 11.1,-2.5 c0.30000000000000004,-0.1 0.30000000000000004,-0.6000000000000001 0,-0.7000000000000001 c-6.6,-0.9 -12.9,-3 -19.6,-3.6 c-3.5,-0.30000000000000004 -6.6,-1.7000000000000002 -10.1,-2.2 c-3.8,-0.5 -7.6,-0.9 -11.4,-1.2 c-1.7000000000000002,-0.1 -3.4,-0.30000000000000004 -5.2,-0.5 c0.9,4.9 1.9,9.8 2.9,14.7 c0.1,0 0.2,0 0.30000000000000004,0 C52.146160888671886,277.1384674072266 55.346160888671875,276.93846740722654 58.646160888671886,276.73846740722655 z" id="svg_20"/>
		<path fill="#C98326" d="M80.14616088867189,340.8384674072266 c0.30000000000000004,-0.1 0.30000000000000004,-0.6000000000000001 0,-0.7000000000000001 c-5.4,-0.8 -10.6,-2.2 -15.9,-3.1 c0.8,2.3 1.6,4.5 2.5,6.6 c0.8,-0.1 1.6,-0.2 2.4,-0.30000000000000004 C72.74616088867185,342.8384674072266 76.34616088867188,341.43846740722654 80.14616088867189,340.8384674072266 z" id="svg_21"/>
	</g>
</g></g></svg>