<svg xmlns="http://www.w3.org/2000/svg" xmlns:xlink="http://www.w3.org/1999/xlink" version="1.1" width="264.6154470838701" height="293.8461915981113" enable-background="new 0 0 1400 980" xml:space="preserve"><rect id="backgroundrect" width="100%" height="100%" x="0" y="0" fill="none" stroke="none" class="selected" style=""/>






<g class="currentLayer" style=""><title>Layer 1</title><g id="svg_50" class="">
	<path fill="#FDECD2" d="M238.73077392578125,160.70773925781248 c0,67.9 -47.9,108 -107,108 s-107,-40.1 -107,-108 s47.9,-138 107,-138 S238.73077392578125,92.8077392578125 238.73077392578125,160.70773925781248 z" id="svg_51"/>
	<path fill="#FFFFFF" d="M54.030773925781205,116.3077392578125 c4.8,-6.3 8.3,-13.9 12.6,-20.6 c4.4,-6.6 9.2,-12.9 14.6,-18.8 c5.4,-5.8 11.3,-11.1 17.7,-15.8 c6.6,-4.8 14.1,-8 20.8,-12.4 c7.3,-4.8 2.8,-17.3 -6.1,-14.5 c-8.2,2.6 -15.9,8 -22.8,13 c-7.5,5.5 -14.5,11.7 -20.8,18.5 c-6.3,6.8 -11.9,14.3 -16.5,22.3 c-4.3,7.5 -8.6,16.9 -9.2,25.6 C43.930773925781295,119.40773925781252 51.33077392578127,119.90773925781252 54.030773925781205,116.3077392578125 z" id="svg_52"/>
	<g id="svg_53">
		<path fill="#DBC2A0" d="M131.73077392578125,268.7077392578125 c59.1,0 107,-40.1 107,-108 c0,-29.5 -9,-59.3 -24.1,-83.7 c0.6000000000000001,4.8 1,9.6 1.7000000000000002,14.3 c1.2,8.2 3,16.3 4.2,24.5 c2.2,14.7 2.8,29.6 1.1,44.3 c-3.1,27 -15,50.7 -37.4,66.7 c-23,16.4 -52.2,25.2 -80.3,23 c-22.9,-1.8 -43.7,-13.4 -62,-26.8 C60.930773925781295,252.40773925781252 94.13077392578123,268.7077392578125 131.73077392578125,268.7077392578125 z" id="svg_54"/>
	</g>
</g></g></svg>