<?xml version="1.0" encoding="utf-8"?>
<!-- Generator: Adobe Illustrator 16.0.0, SVG Export Plug-In . SVG Version: 6.00 Build 0)  -->
<!DOCTYPE svg PUBLIC "-//W3C//DTD SVG 1.1//EN" "http://www.w3.org/Graphics/SVG/1.1/DTD/svg11.dtd">
<svg version="1.1" id="Calque_1" xmlns="http://www.w3.org/2000/svg" xmlns:xlink="http://www.w3.org/1999/xlink" x="0px" y="0px"
	 width="432px" height="432px" viewBox="0 0 432 432" enable-background="new 0 0 432 432" xml:space="preserve">
<g>
	<path fill="#42210B" d="M189.301,333.906l9.162,0.655l2.618-1.637l2.087-19.483c-4.175-0.707-8.354-1.416-12.522-2.123
		L189.301,333.906z"/>
	<path fill="#42210B" d="M166.561,351.248l11.125,0.818l3.108-2.618l4.961-38.96c-5.958-1.012-11.878-2.016-17.711-3.007
		L166.561,351.248z"/>
	<path fill="#4D4D4D" d="M312.921,310.285c3.764,3.562,11.058,10.287,13.957,12.957c0.881-0.827,1.906-1.5,3.04-1.968
		l-13.866-13.917C314.938,308.257,313.892,309.235,312.921,310.285z"/>
	<path fill="#4D4D4D" d="M311.462,331.72l-6.289,0.465c0.095,1.44,0.293,2.854,0.59,4.231c5.515-0.581,15.244-1.719,18.667-2.121
		c-0.061-0.149-0.114-0.303-0.167-0.457C321.097,333.321,316.761,332.604,311.462,331.72z"/>
	<path fill="#4D4D4D" d="M331.77,340.386c-1.192-0.237-2.303-0.693-3.303-1.313l-7.57,17.194c1.261,0.661,2.574,1.232,3.933,1.707
		C326.736,353.276,330.282,344.201,331.77,340.386z"/>
	<path fill="#4D4D4D" d="M338.723,339.236l11.57,15.751c1.216-0.778,2.371-1.644,3.457-2.588
		c-2.731-3.538-9.398-11.858-12.292-15.462C340.694,337.858,339.766,338.635,338.723,339.236z"/>
	<path fill="#4D4D4D" d="M363.114,323.558c-4.161,0.563-15.511,2.354-20.144,3.089c0.458,1.08,0.72,2.26,0.77,3.493l20.041-2.302
		C363.663,326.379,363.438,324.95,363.114,323.558z"/>
	<path fill="#4D4D4D" d="M335.633,320.704c1.194,0.23,2.308,0.678,3.311,1.292l6.519-19.035c-1.325-0.535-2.697-0.976-4.109-1.314
		C339.945,306.123,336.867,316.522,335.633,320.704z"/>
	<path d="M334.493,293.244c-15.818,0-29.342,9.985-34.614,23.982l5.916,1.524c1.42-3.54,3.474-6.759,6.025-9.514
		c0.98-1.06,2.033-2.051,3.151-2.964c5.327-4.351,12.124-6.965,19.521-6.965c2.525,0,4.978,0.311,7.329,0.885
		c1.419,0.347,2.799,0.792,4.134,1.327c9.327,3.739,16.418,11.893,18.679,21.864c0.316,1.395,0.537,2.822,0.657,4.28
		c0.069,0.844,0.114,1.695,0.114,2.557c0,9.34-4.169,17.719-10.737,23.392c-1.094,0.945-2.255,1.815-3.475,2.602
		c-4.82,3.108-10.551,4.921-16.701,4.921c-3.589,0-7.034-0.622-10.241-1.751c-1.37-0.483-2.694-1.061-3.969-1.723
		c-8.104-4.214-14.119-11.905-16.045-21.089c-0.292-1.394-0.484-2.822-0.582-4.276c-0.042-0.627-0.069-1.258-0.073-1.894
		c-1.933-0.324-3.95-0.662-6.048-1.015c-0.006,0.278-0.021,0.554-0.021,0.833c0,20.39,16.588,36.979,36.979,36.979
		c20.39,0,36.978-16.589,36.978-36.979S354.883,293.244,334.493,293.244z"/>
	<path d="M333.729,322.038c-1.515,0-2.936,0.402-4.169,1.1c-0.564,0.318-1.085,0.702-1.561,1.137
		c-0.057,0.053-0.116,0.104-0.172,0.157l5.543,1.429c0.646,0.072,2.945,0.429,4.205,1.965c0.649,0.792,0.927,1.768,0.803,2.823
		c-0.354,3.009-1.948,4.292-5.328,4.292c-0.77,0-1.684-0.056-2.878-0.175c-0.331-0.033-1.771-0.257-4.155-0.642
		c0.675,1.449,1.74,2.678,3.067,3.547c0.966,0.632,2.068,1.068,3.251,1.265c0.455,0.075,0.918,0.124,1.395,0.124
		c1.482,0,2.876-0.383,4.091-1.052c1.038-0.571,1.938-1.357,2.656-2.292c1.101-1.435,1.764-3.223,1.764-5.167
		c0-0.079-0.01-0.156-0.012-0.235c-0.034-1.222-0.326-2.377-0.824-3.419c-0.665-1.391-1.69-2.577-2.963-3.428
		c-0.96-0.641-2.06-1.085-3.24-1.292C334.721,322.091,334.232,322.038,333.729,322.038z"/>
	<path fill="#42210B" d="M130.192,288.665c-9.001-1.494-55.188-9.169-59.173-10.055c-0.354-0.078-0.716-0.152-1.081-0.22
		c-0.024-0.005-0.049-0.01-0.073-0.014c-0.359-0.065-0.722-0.125-1.085-0.175c-0.025-0.003-0.05-0.007-0.076-0.01
		c-0.744-0.1-1.489-0.16-2.212-0.162c-0.031,0-0.063-0.001-0.093-0.001c-0.337,0.002-0.67,0.017-0.994,0.046
		c-0.045,0.005-0.091,0.01-0.136,0.015c-0.122,0.013-0.242,0.027-0.361,0.045c-0.044,0.007-0.089,0.013-0.133,0.02
		c-0.313,0.051-0.615,0.118-0.906,0.204c-0.041,0.013-0.081,0.025-0.122,0.039c-0.107,0.034-0.214,0.071-0.318,0.11
		c-0.039,0.016-0.079,0.03-0.117,0.046c-0.272,0.111-0.531,0.243-0.772,0.397c-0.034,0.021-0.067,0.044-0.101,0.066
		c-0.089,0.061-0.175,0.124-0.259,0.19c-0.032,0.025-0.064,0.05-0.096,0.076c-0.218,0.184-0.417,0.392-0.594,0.624
		c-0.026,0.033-0.05,0.068-0.075,0.104c-0.064,0.089-0.125,0.183-0.183,0.279c-0.022,0.038-0.045,0.075-0.067,0.114
		c-0.148,0.267-0.273,0.561-0.374,0.884c-0.015,0.047-0.028,0.097-0.041,0.146c-0.034,0.122-0.065,0.249-0.092,0.38
		c-0.011,0.053-0.022,0.104-0.032,0.158c-0.033,0.182-0.061,0.367-0.079,0.563v0.001c-0.016,0.163-0.022,0.323-0.02,0.479
		c0.007,0.469,0.091,0.902,0.237,1.306c0.049,0.134,0.104,0.265,0.166,0.392c0.186,0.382,0.429,0.732,0.713,1.055
		c0.379,0.43,0.833,0.808,1.327,1.141c2.468,1.661,5.919,2.172,5.919,2.172s33.993,5.789,77.464,13.175l1.49-10.519L130.192,288.665
		z"/>
	<path fill="#42210B" d="M163.934,294.536l-1.26,10.49c1.798,0.306,3.605,0.612,5.422,0.921c5.877,0.998,11.844,2.011,17.851,3.029
		c1.594,0.271,3.19,0.542,4.789,0.813c4.191,0.711,8.395,1.424,12.593,2.136c20.756,3.52,41.385,7.014,59.799,10.124l2.88-9.75
		L163.934,294.536z"/>
	<path fill="#42210B" d="M101.516,273.027c0.004,0.004,0.008,0.009,0.012,0.013c0.909,0.834,2.048,0.989,2.048,0.989l29.125,5.663
		l1.311-8.763c-1.854-0.354-6.633-1.263-11.619-2.204c-0.938-0.177-1.884-0.355-2.819-0.531c-0.374-0.07-0.746-0.141-1.115-0.21
		c-2.619-0.491-5.089-0.952-6.999-1.302c-0.22-0.041-0.433-0.079-0.637-0.117c-0.042-0.008-0.084-0.015-0.125-0.022
		c-0.451-0.082-0.861-0.156-1.222-0.221c-0.035-0.006-0.07-0.013-0.104-0.019c-0.271-0.048-0.514-0.091-0.724-0.127
		c-0.312-0.054-0.614-0.102-0.911-0.145c-0.097-0.015-0.189-0.025-0.285-0.038c-0.195-0.026-0.39-0.053-0.578-0.073
		c-0.111-0.013-0.217-0.021-0.325-0.031c-0.167-0.016-0.332-0.031-0.493-0.042c-0.11-0.008-0.216-0.012-0.324-0.017
		c-0.15-0.007-0.299-0.012-0.444-0.014c-0.149-0.002-0.296-0.002-0.439,0.002c-0.044,0.002-0.091,0.002-0.135,0.004
		c-0.197,0.008-0.387,0.022-0.572,0.043c-0.042,0.005-0.082,0.012-0.124,0.017c-0.145,0.02-0.285,0.042-0.42,0.069
		c-0.051,0.01-0.102,0.021-0.151,0.031c-0.153,0.035-0.301,0.074-0.443,0.121c-0.016,0.005-0.032,0.009-0.048,0.014
		c-0.154,0.053-0.299,0.114-0.44,0.182c-0.04,0.02-0.079,0.041-0.118,0.062c-0.105,0.056-0.207,0.115-0.304,0.18
		c-0.035,0.023-0.071,0.046-0.105,0.07c-0.123,0.089-0.24,0.184-0.349,0.289c-0.019,0.018-0.035,0.039-0.053,0.058
		c-0.09,0.092-0.176,0.189-0.256,0.294c-0.029,0.038-0.057,0.077-0.084,0.116c-0.074,0.105-0.143,0.217-0.208,0.334
		c-0.017,0.03-0.035,0.058-0.05,0.088c-0.076,0.148-0.145,0.308-0.206,0.476c-0.016,0.043-0.03,0.09-0.044,0.135
		c-0.045,0.135-0.086,0.276-0.123,0.424c-0.014,0.055-0.027,0.11-0.04,0.167c-0.043,0.197-0.08,0.4-0.108,0.619v0.001
		c-0.165,1.315,0.134,2.238,0.598,2.894C101.204,272.701,101.354,272.878,101.516,273.027z"/>
	<path fill="#603813" d="M334.903,273.702l-6.122-1.034l-0.323,0.28l-6.633,5.761l-1.393,1.209l-4.255,3.695l-0.359-0.064
		c-0.259-0.047-4.298-0.78-10.987-1.995c-0.541-0.098-1.098-0.199-1.672-0.304c-2.458-0.445-5.218-0.947-8.242-1.495l-3.646,1.215
		l-2.78,10.075l-6.22,22.541l10.182,1.771L334.903,273.702z"/>
	<path fill="#603813" d="M148.06,290.23l4.731-33.411c0.035-0.245,0.186-0.458,0.406-0.57l1.366-0.699l1.821-0.934
		c-0.871-0.157-1.71-0.31-2.525-0.458c-4.361-0.79-7.902-1.432-10.401-1.884l-1.438-0.167l-3.83,1.149l-5.137,34.362L148.06,290.23z
		"/>
	<path fill="#42210B" d="M303.614,328.866c0.251,0.042,0.508,0.085,0.757,0.127c0.256,0.043,0.504,0.084,0.757,0.127
		c1.216,0.203,2.396,0.4,3.538,0.592c3.426,0.572,6.513,1.087,9.21,1.534c2.276,0.377,4.279,0.708,5.974,0.985
		c0.271,0.044,0.532,0.087,0.788,0.129c0.282,0.046,0.551,0.09,0.813,0.132c0.071,0.012,0.147,0.024,0.217,0.036
		c2.693,0.438,4.306,0.689,4.654,0.724c0.288,0.029,0.562,0.054,0.825,0.075c0.085,0.008,0.164,0.013,0.247,0.019
		c0.174,0.014,0.347,0.025,0.51,0.035c0.092,0.006,0.179,0.01,0.267,0.014c0.146,0.007,0.289,0.013,0.426,0.017
		c0.087,0.003,0.171,0.004,0.255,0.005c0.064,0.001,0.133,0.004,0.196,0.004c0.07,0,0.134-0.003,0.202-0.004
		c0.061-0.001,0.123-0.002,0.182-0.004c0.155-0.004,0.303-0.013,0.444-0.023c0.027-0.002,0.057-0.003,0.084-0.005
		c0.165-0.015,0.319-0.034,0.466-0.058c0.042-0.007,0.079-0.016,0.119-0.022c0.105-0.02,0.206-0.041,0.302-0.065
		c0.044-0.012,0.087-0.023,0.13-0.036c0.09-0.026,0.177-0.056,0.259-0.088c0.034-0.013,0.069-0.025,0.101-0.039
		c0.11-0.047,0.214-0.099,0.31-0.157c0.012-0.007,0.021-0.015,0.033-0.022c0.083-0.052,0.161-0.109,0.234-0.171
		c0.027-0.021,0.051-0.046,0.077-0.069c0.056-0.052,0.108-0.106,0.157-0.163c0.023-0.027,0.047-0.055,0.069-0.083
		c0.052-0.067,0.1-0.139,0.146-0.214c0.013-0.021,0.027-0.04,0.039-0.062c0.055-0.098,0.105-0.202,0.15-0.313
		c0.012-0.028,0.021-0.06,0.033-0.089c0.032-0.087,0.063-0.176,0.09-0.271c0.012-0.041,0.023-0.084,0.034-0.127
		c0.024-0.093,0.046-0.189,0.066-0.289c0.008-0.042,0.017-0.082,0.024-0.125c0.025-0.144,0.048-0.292,0.067-0.45
		c0.103-0.869-0.227-1.498-0.728-1.953c-0.101-0.091-0.208-0.175-0.319-0.252c-0.335-0.232-0.714-0.407-1.08-0.537
		c-0.366-0.13-0.719-0.216-1.002-0.271s-0.499-0.081-0.588-0.09c-0.03-0.003-0.046-0.005-0.046-0.005l-2.389-0.615l0.026-0.116
		l-1.128-0.168l-2.884-0.743l-0.781-0.202l-0.765-0.196l-18.447-4.756l-0.744-0.192l-0.733-0.188l-5.887-1.518l-0.745-0.192
		l-0.731-0.188l-5.221-1.346l-10.811-1.882l-2.677,9.701l0,0c3.769,0.635,7.396,1.246,10.858,1.828
		c2.077,0.35,4.095,0.688,6.047,1.017c0.253,0.043,0.502,0.084,0.752,0.127c0.252,0.042,0.503,0.084,0.753,0.126
		C299.684,328.207,301.691,328.544,303.614,328.866z"/>
	<polygon fill="#8C6239" points="147.856,302.51 147.643,304.017 147.311,306.368 158.05,308.258 160.833,306.258 161.009,306.131 
		161.172,304.771 162.433,294.275 149.345,291.998 	"/>
	<path fill="#8C6239" d="M287.031,290.62l2.882-10.446c0.067-0.244,0.252-0.438,0.493-0.52l1.397-0.465
		c-2.367-0.43-4.873-0.885-7.489-1.359c-0.521-0.095-1.048-0.19-1.579-0.287c-0.159-0.028-0.313-0.057-0.473-0.086l-4.953,1.963
		l-2.26,7.649l-7.098,24.024l12.814,2.229L287.031,290.62z"/>
	<polygon fill="#8C6239" points="267.518,312.563 264.639,322.305 264.639,322.305 264.205,323.774 263.47,326.261 274.609,328.528 
		277.211,326.204 277.273,325.979 277.68,324.505 280.359,314.797 	"/>
	<path fill="#F7931E" d="M155.27,240.998c-1.9,3.411-2.691,7.04-2.224,10.273c0.06,0.416,0.148,0.823,0.252,1.225l7.039,1.293
		c1.373-3.275,3.061-6.287,4.982-8.824C161.918,242.823,158.614,241.522,155.27,240.998z"/>
	<path fill="#F7931E" d="M173.46,237.255c-0.007,0.035-0.025,0.066-0.035,0.101c0.083,0.11,0.167,0.221,0.241,0.338
		c7.263-3.767,14.659-7.447,22.022-10.963c-2.397-2.91-5.542-4.895-8.748-5.493c-3.287-0.613-6.767,0.325-9.057,2.359
		c0.106,0.376,0.07,0.79-0.133,1.155C175.404,228.976,174.178,233.91,173.46,237.255z"/>
	<path fill="#F7931E" d="M168.984,255.377l2.5,0.459c-1.131-2.661-2.106-5.387-2.888-8.169
		C168.16,249.959,168.503,252.544,168.984,255.377z"/>
	<path fill="#F15A24" d="M172.534,223.826c-0.284,0.07-0.567,0.158-0.845,0.262c-0.172,0.064-0.342,0.136-0.509,0.21
		c-0.512,0.229-1.003,0.502-1.457,0.806c-1.438,0.966-2.682,2.213-3.663,3.64c-0.246,0.356-0.474,0.725-0.686,1.103
		s-0.405,0.766-0.58,1.161c-0.135,0.305-0.255,0.615-0.368,0.929c-0.107,0.299-0.207,0.601-0.293,0.906
		c0.25,0.05,0.498,0.104,0.745,0.162c1.989,0.463,3.895,1.173,5.675,2.115c0.645,0.341,1.16,0.663,1.603,0.997
		c0.064-0.284,0.125-0.568,0.191-0.853c0.841-3.572,1.953-7.125,3.609-10.357c0.153-0.299,0.301-0.601,0.463-0.893
		c-0.011,0.013-0.021,0.026-0.032,0.039c-0.045,0.055-0.091,0.109-0.135,0.165c-0.625-0.368-1.309-0.546-2.012-0.576
		c-0.282-0.013-0.567-0.002-0.853,0.03C173.104,223.703,172.818,223.756,172.534,223.826z"/>
	<path fill="#F15A24" d="M270.34,239.857c-11.607,9.847-15.624,15.766-11.728,31.976l5.462,1.003
		c0.205-5.064,1.408-10.117,3.599-14.772c3.563-7.571,9.682-14.133,17.314-18.612c-0.294-1.08-0.31-2.239-0.044-3.426
		c-0.086-0.002-0.172-0.005-0.259-0.006c-0.355-0.003-0.71,0.009-1.065,0.02c-0.219,0.007-0.439,0.008-0.658,0.02
		c-0.378,0.021-0.755,0.057-1.131,0.093c-0.177,0.018-0.354,0.027-0.531,0.048c-0.554,0.064-1.106,0.144-1.655,0.241
		c-0.012,0.002-0.025,0.006-0.037,0.008c-0.536,0.097-1.069,0.209-1.599,0.336c-0.174,0.042-0.345,0.093-0.518,0.138
		c-0.367,0.096-0.734,0.191-1.097,0.302c-0.205,0.063-0.408,0.134-0.612,0.201c-0.326,0.106-0.652,0.214-0.975,0.332
		c-0.215,0.079-0.428,0.167-0.641,0.251c-0.306,0.121-0.612,0.243-0.914,0.375c-0.217,0.094-0.431,0.194-0.646,0.295
		c-0.292,0.136-0.583,0.274-0.87,0.42c-0.215,0.108-0.427,0.222-0.639,0.336C270.843,239.571,270.591,239.713,270.34,239.857z"/>
	<path fill="#F15A24" d="M198.086,227.52c-0.065,0.014-0.131,0.027-0.196,0.037c-0.065,0.009-0.131,0.015-0.195,0.014
		s-0.128-0.009-0.191-0.024c-0.273,0.13-0.544,0.263-0.817,0.393c-1.735,0.827-3.469,1.658-5.197,2.499
		c-2.427,1.18-4.845,2.378-7.259,3.584c-3.326,1.663-6.64,3.349-9.94,5.062c0.016,0.053,0.036,0.104,0.05,0.157
		c0.106,0.402,0.164,0.82,0.183,1.241c0.563-0.099,1.129-0.181,1.7-0.234c0.824-0.078,1.654-0.114,2.486-0.118
		c0.417-0.002,0.833,0.003,1.25,0.016c1.251,0.036,2.503,0.132,3.744,0.25c5.599,0.531,11.053,1.59,16.411,3.058
		c2.143,0.587,4.271,1.239,6.387,1.949c0.75,0.252,1.497,0.52,2.244,0.785c0.186,0.065,0.372,0.13,0.557,0.194
		c1.461-3.597,1.204-7.487-0.774-11.575c-0.705-1.458-1.521-2.695-2.213-3.624c-0.015-0.016-0.028-0.032-0.043-0.049
		c-2.085-2.26-4.997-4.354-7.992-3.659C198.216,227.488,198.151,227.505,198.086,227.52z"/>
	<path fill="#F7931E" d="M194.417,260.046l13.68,2.512l2.034,0.374l1.89,0.347c2.094-5.654-1.596-14.708-1.851-15.317
		c-0.005-0.005-0.009-0.011-0.014-0.016c-0.318,0.108-0.672,0.115-1.009-0.008c-9.006-3.277-17.376-5.249-25.587-6.029
		c-2.978-0.283-6.142-0.452-9.17,0.143c-0.174,0.769-0.502,1.484-0.968,2.092c-0.043,0.058-0.093,0.11-0.139,0.165
		c4.706,4.136,9.888,7.851,14.913,11.443C190.226,257.202,192.292,258.673,194.417,260.046z"/>
	<path fill="#FBB03B" d="M206.194,212.127l-0.092,0.084l-0.112,0.056c-0.069,0.034-0.134,0.075-0.2,0.118
		c-0.445,1.607-1.057,2.934-0.266,4.771c0.758,1.762,2.072,3.221,2.893,4.95c1.572,3.313,0.585,6.353,0.113,9.725
		c1.131,1.793,2.307,4.162,2.852,6.854c1.568,0.359,3.141,0.753,4.817,0.492c1.673-0.261,3.378-1.046,4.403-2.445
		c0.967-1.32,0.998-2.909,1.193-4.465c0.218-1.73,0.542-4.679,2.885-4.599c0.629,0.021,1.342,0.546,1.968,0.34
		c0.85-0.28,1.186-1.478,1.294-2.22c0.128-0.885,0.085-1.787,0.116-2.684c-3.264-1.58-6.907-2.373-9.967-4.365
		c-1.503-0.979-2.738-2.217-3.68-3.745c-1.208-1.96-2.209-5.187-5.14-4.404c-0.283,0.075-0.575,0.022-0.835-0.099
		C207.741,210.856,206.992,211.402,206.194,212.127z"/>
	<path fill="#F15A24" d="M167.428,246.105c-0.221-0.062-0.441-0.134-0.651-0.224l-0.095-0.04c-0.029-0.013-0.055-0.029-0.082-0.046
		c-0.268,0.351-0.531,0.706-0.787,1.071c-0.406,0.581-0.797,1.18-1.173,1.793c-0.188,0.307-0.373,0.618-0.553,0.932
		c-0.722,1.256-1.382,2.565-1.978,3.905c-0.084,0.189-0.157,0.383-0.238,0.573l5.523,1.015c-0.033-0.196-0.066-0.391-0.098-0.587
		c-0.104-0.66-0.2-1.326-0.273-1.991c-0.172-1.554-0.227-3.11-0.009-4.61C167.104,247.288,167.239,246.69,167.428,246.105z"/>
	<path fill="#F15A24" d="M171.939,245.461c-0.649,0.393-1.392,0.656-2.151,0.773c0.116,0.44,0.23,0.883,0.356,1.32
		c0.066,0.23,0.139,0.459,0.208,0.688c0.134,0.45,0.269,0.901,0.413,1.35c0.087,0.271,0.181,0.541,0.272,0.812
		c0.135,0.403,0.271,0.806,0.414,1.206c0.102,0.285,0.209,0.569,0.315,0.853c0.143,0.383,0.287,0.765,0.436,1.145
		c0.114,0.289,0.232,0.576,0.35,0.864c0.153,0.372,0.308,0.743,0.467,1.112c0.084,0.193,0.17,0.387,0.255,0.58l17.38,3.191
		c-1.122-0.779-2.234-1.574-3.343-2.367c-2.027-1.449-4.056-2.9-6.061-4.382c-3.13-2.313-6.198-4.706-9.112-7.278
		C172.071,245.372,172.008,245.419,171.939,245.461z"/>
	<path fill="#42210B" d="M150.848,239.219c0.688-0.028,1.38-0.026,2.068,0.005c0.689,0.032,1.375,0.093,2.055,0.184h0.001
		c3.817,0.509,7.559,1.97,11.402,4.431c0.328,0.21,0.655,0.414,0.984,0.639c0.008,0.004,0.014,0.006,0.014,0.007
		c0.164,0.069,0.334,0.127,0.507,0.173c0.131,0.034,0.266,0.062,0.402,0.082c0.258,0.039,0.524,0.054,0.791,0.043
		c0.138-0.005,0.276-0.017,0.415-0.036c0.588-0.08,1.164-0.283,1.665-0.586c0.355-0.216,0.662-0.476,0.919-0.772
		c0.048-0.056,0.098-0.11,0.143-0.169c0.307-0.4,0.527-0.871,0.659-1.38c0.099-0.384,0.149-0.787,0.139-1.201
		c-0.008-0.343-0.056-0.682-0.142-1.007c-0.107-0.403-0.269-0.772-0.478-1.104c-0.025-0.041-0.053-0.08-0.081-0.119
		c-0.058-0.085-0.117-0.171-0.183-0.25c-0.177-0.215-0.387-0.423-0.642-0.636c-0.422-0.352-0.944-0.688-1.644-1.058
		c-1.88-0.995-3.911-1.714-6.036-2.137c-0.421-0.083-0.844-0.147-1.267-0.207c-1.596-0.225-3.199-0.281-4.784-0.156
		c-0.581,0.046-1.162,0.115-1.742,0.201c-1.741,0.26-3.473,0.676-5.163,1.08c-0.233,0.056-0.473,0.113-0.714,0.178
		c-0.724,0.192-1.454,0.446-2.004,0.891c-0.582,0.471-1,1.344-0.692,1.991C147.874,239.211,149.333,239.279,150.848,239.219z"/>
	<path fill="#6C7D27" d="M313.969,222.951c0.19,0.017,0.377,0.031,0.569,0.049l0.235,0.021c2.942,0.261,5.985,0.531,8.603-0.174
		c0.806-0.217,1.527-0.511,2.203-0.896c0.059-0.036,0.122-0.067,0.188-0.094c0.048-0.02,0.097-0.035,0.146-0.049
		c0.035-0.009,0.071-0.018,0.106-0.023c0.659-0.121,1.31,0.283,1.487,0.941c0.141,0.521-0.058,1.055-0.46,1.366
		c-1.398,1.134-3.317,1.81-4.684,2.178c-1.203,0.324-2.469,0.538-3.565,0.602c-1.146,0.067-2.291,0.044-3.359,0.009
		c-0.244-0.008-0.487-0.017-0.73-0.025c-0.083-0.003-0.167-0.005-0.251-0.008c-0.063,0.102-0.126,0.204-0.184,0.31
		c-0.009,0.017-0.017,0.034-0.025,0.052c-0.147,0.276-0.278,0.563-0.387,0.858c-0.175,0.47-0.301,0.961-0.38,1.461
		c-0.052,0.333-0.083,0.671-0.093,1.009c-0.009,0.339,0.002,0.679,0.036,1.015c0.05,0.506,0.148,1.005,0.295,1.488
		c0.048,0.158,0.101,0.313,0.158,0.468c0.011,0.031,0.023,0.062,0.035,0.092c0.105,0.277,0.226,0.548,0.357,0.813
		c0.327,0.654,0.73,1.27,1.195,1.84c1.001,1.225,2.284,2.24,3.678,2.995c2.479,1.342,5.296,1.936,8.097,2.253
		c1.898,0.215,3.833,0.31,5.705-0.07c0.225-0.046,0.449-0.101,0.671-0.161c0.062-0.017,0.123-0.037,0.184-0.056
		c0.156-0.046,0.312-0.093,0.466-0.146c0.08-0.027,0.158-0.06,0.237-0.089c0.134-0.051,0.267-0.103,0.398-0.158
		c0.083-0.036,0.166-0.075,0.249-0.113c0.124-0.058,0.247-0.118,0.368-0.181c0.083-0.043,0.164-0.088,0.245-0.134
		c0.118-0.066,0.233-0.137,0.347-0.209c0.078-0.049,0.155-0.099,0.231-0.15c0.114-0.078,0.225-0.161,0.335-0.245
		c0.069-0.054,0.139-0.105,0.207-0.16c0.117-0.097,0.229-0.2,0.34-0.305c0.053-0.05,0.108-0.097,0.16-0.148
		c0.159-0.159,0.312-0.326,0.455-0.502c-0.286-0.066-0.579-0.158-0.857-0.277c-0.11-0.047-0.217-0.099-0.32-0.155
		c-0.471-0.258-0.859-0.617-1.007-1.126c-0.255-0.875,0.341-1.804,1.107-2.298c0.375-0.242,0.786-0.41,1.208-0.558
		c0.016-0.006,0.032-0.012,0.047-0.018c0.204-0.07,0.41-0.136,0.616-0.203c0.224-0.072,0.447-0.146,0.666-0.229
		c1.641-0.622,2.967-1.686,4.158-2.947c0.108-0.115,0.215-0.231,0.321-0.349c0.14-0.155,0.277-0.313,0.413-0.472
		c0.176-0.205,0.349-0.413,0.521-0.623c0.203-0.25,0.404-0.504,0.604-0.759c0.4-0.512,0.794-1.031,1.193-1.549
		c0.2-0.258,0.4-0.516,0.603-0.771s0.407-0.509,0.615-0.759c0.728-0.874,1.495-1.702,2.347-2.425c0,0.001-0.001,0.001-0.001,0.001
		c-0.085,0.057-0.173,0.104-0.263,0.146c-0.028,0.013-0.057,0.023-0.086,0.035c-0.064,0.026-0.129,0.05-0.195,0.069
		c-0.017,0.005-0.033,0.013-0.05,0.018c-0.012,0.003-0.024,0.003-0.037,0.007c-0.119,0.029-0.239,0.05-0.362,0.06
		c-0.021,0.002-0.041,0.002-0.062,0.003c-0.12,0.006-0.241,0.005-0.363-0.007c-0.011-0.001-0.022-0.001-0.033-0.002
		c-0.127-0.013-0.255-0.037-0.382-0.067c-0.025-0.006-0.05-0.012-0.075-0.019c-0.124-0.033-0.248-0.073-0.37-0.12
		c-0.021-0.009-0.042-0.018-0.063-0.026c-0.123-0.051-0.243-0.105-0.361-0.169c-0.005-0.003-0.011-0.006-0.016-0.009
		c-0.12-0.064-0.237-0.138-0.351-0.216c-0.021-0.014-0.042-0.027-0.063-0.042c-0.109-0.077-0.214-0.158-0.315-0.244
		c-0.018-0.016-0.035-0.031-0.053-0.047c-0.103-0.091-0.203-0.186-0.294-0.284c-0.197-0.213-0.375-0.441-0.543-0.676
		c-0.089-0.122-0.175-0.246-0.259-0.373c-0.169-0.255-0.333-0.516-0.494-0.777c-0.258-0.419-0.515-0.839-0.803-1.234
		c-0.104-0.144-0.212-0.283-0.326-0.419c-0.572-0.684-1.257-1.227-2.017-1.646c-0.333-0.185-0.684-0.341-1.043-0.479
		c-0.254-0.097-0.512-0.187-0.777-0.262c-0.911-0.259-1.876-0.387-2.849-0.408c-1.072-0.023-2.154,0.081-3.184,0.295
		c-1.227,0.254-2.64,0.584-3.726,0.129c-0.251-0.105-0.484-0.252-0.693-0.451c-0.124-0.117-0.225-0.249-0.317-0.386
		c-0.508-0.76-0.574-1.789-0.597-2.731c-0.244,0.219-0.497,0.427-0.754,0.628c-0.083,0.064-0.167,0.125-0.251,0.188
		c-0.18,0.135-0.363,0.268-0.55,0.394c-0.098,0.067-0.198,0.132-0.298,0.197c-0.183,0.117-0.368,0.23-0.556,0.341
		c-0.099,0.058-0.197,0.116-0.297,0.172c-0.22,0.122-0.443,0.236-0.669,0.348c-0.069,0.033-0.136,0.07-0.206,0.104
		c-0.295,0.14-0.595,0.269-0.899,0.389c-0.076,0.03-0.154,0.056-0.231,0.085c-0.231,0.086-0.463,0.169-0.697,0.244
		c-0.109,0.035-0.219,0.066-0.33,0.099c-0.114,0.034-0.227,0.072-0.341,0.104c-0.106,0.028-0.213,0.051-0.32,0.077
		c-0.09,0.021-0.179,0.044-0.269,0.064c-0.31,0.07-0.621,0.133-0.935,0.183c-0.001,0.001-0.002,0.001-0.003,0.001
		c-0.141,0.022-0.283,0.042-0.426,0.062c-0.045,0.007-0.091,0.013-0.137,0.019c-0.102,0.014-0.205,0.026-0.307,0.039
		c-0.055,0.007-0.109,0.014-0.164,0.02c-0.122,0.016-0.245,0.03-0.367,0.045c-0.111,0.013-0.222,0.026-0.333,0.041
		c-0.04,0.005-0.079,0.01-0.118,0.015c-0.142,0.018-0.282,0.037-0.423,0.058c-0.036,0.005-0.071,0.011-0.107,0.016
		c-0.105,0.017-0.21,0.033-0.314,0.051c-0.049,0.008-0.097,0.018-0.145,0.025c-0.093,0.018-0.186,0.035-0.278,0.055
		c-0.05,0.01-0.099,0.021-0.149,0.031c-0.097,0.021-0.193,0.045-0.288,0.069c-0.04,0.011-0.08,0.02-0.119,0.03
		c-0.159,0.044-0.315,0.093-0.469,0.146c-0.036,0.013-0.071,0.026-0.107,0.04c-0.143,0.053-0.283,0.109-0.42,0.173
		c-0.016,0.008-0.033,0.014-0.049,0.021c-0.147,0.07-0.29,0.149-0.43,0.235c-0.033,0.021-0.066,0.041-0.099,0.063
		c-0.141,0.09-0.279,0.187-0.411,0.295v0.001c-1.15,0.949-1.626,2.451-1.549,3.956C313.853,222.28,313.897,222.618,313.969,222.951z
		"/>
	<path fill="#424D18" d="M302.607,228.713c-0.187,0.267-0.368,0.536-0.546,0.806c-0.089,0.136-0.177,0.271-0.264,0.405l1.806,1.154
		c0.182-0.454,0.385-0.905,0.615-1.342c0.23-0.438,0.486-0.859,0.771-1.256c0.143-0.198,0.294-0.391,0.453-0.574
		c0.476-0.551,1.024-1.029,1.659-1.396c0,0,0.001,0,0.001-0.001c0.154-0.088,0.313-0.167,0.472-0.241
		c0.047-0.021,0.094-0.042,0.141-0.063c0.124-0.054,0.25-0.104,0.377-0.149c0.042-0.016,0.085-0.032,0.128-0.047
		c0.155-0.053,0.312-0.103,0.471-0.145c0.008-0.002,0.016-0.004,0.024-0.006c0.221-0.059,0.446-0.107,0.672-0.149
		c0.063-0.012,0.125-0.02,0.188-0.03c0.168-0.027,0.337-0.053,0.507-0.072c0.078-0.01,0.157-0.019,0.236-0.026
		c0.164-0.016,0.327-0.029,0.491-0.04c0.07-0.005,0.14-0.01,0.21-0.014c0.227-0.012,0.455-0.021,0.681-0.025
		c0.001,0,0.002,0,0.003,0c0.944-0.018,1.889,0.013,2.833,0.047c0.314,0.011,0.629,0.022,0.944,0.033
		c1.081,0.035,2.161,0.056,3.24-0.008h0c0.221-0.013,0.453-0.034,0.69-0.061c0.043-0.005,0.085-0.009,0.129-0.014
		c0.23-0.028,0.467-0.062,0.708-0.102c0.047-0.007,0.094-0.016,0.141-0.023c0.25-0.044,0.504-0.092,0.761-0.147
		c0.011-0.002,0.023-0.005,0.034-0.008c0.25-0.055,0.502-0.116,0.753-0.183c0.05-0.014,0.101-0.026,0.151-0.04
		c0.131-0.035,0.261-0.074,0.392-0.112c0.057-0.018,0.113-0.033,0.169-0.051c0.186-0.057,0.37-0.117,0.552-0.181
		c0.03-0.011,0.06-0.022,0.091-0.033c0.15-0.054,0.3-0.108,0.447-0.166c0.063-0.024,0.123-0.051,0.185-0.076
		c0.114-0.047,0.228-0.094,0.339-0.144c0.067-0.029,0.132-0.06,0.198-0.09c0.104-0.048,0.207-0.098,0.307-0.147
		c0.065-0.033,0.129-0.065,0.193-0.1c0.099-0.052,0.194-0.105,0.29-0.159c0.059-0.034,0.119-0.067,0.177-0.103
		c0.1-0.06,0.195-0.122,0.29-0.185c0.047-0.031,0.095-0.062,0.141-0.093c0.136-0.095,0.267-0.192,0.389-0.293
		c0.001,0,0.001,0,0.002-0.001c-0.211,0.121-0.426,0.233-0.642,0.338c-0.072,0.034-0.145,0.063-0.217,0.096
		c-0.146,0.066-0.292,0.133-0.439,0.191c-0.088,0.035-0.178,0.065-0.267,0.099c-0.134,0.05-0.268,0.099-0.403,0.143
		c-0.096,0.031-0.193,0.059-0.291,0.088c-0.093,0.027-0.184,0.058-0.278,0.083c-0.043,0.012-0.086,0.021-0.129,0.032
		c-0.069,0.018-0.139,0.034-0.208,0.051c-0.156,0.037-0.312,0.071-0.469,0.103c-0.066,0.014-0.132,0.027-0.199,0.04
		c-0.211,0.039-0.423,0.074-0.637,0.104c-0.007,0.001-0.015,0.003-0.022,0.004c-0.222,0.03-0.446,0.055-0.67,0.076
		c-0.069,0.007-0.138,0.012-0.207,0.017c-0.162,0.014-0.324,0.025-0.487,0.035c-0.073,0.004-0.146,0.008-0.219,0.012
		c-0.183,0.008-0.366,0.014-0.55,0.018c-0.045,0.001-0.091,0.003-0.136,0.004c-0.228,0.003-0.456,0.003-0.685,0
		c-0.064-0.001-0.127-0.003-0.191-0.004c-0.171-0.003-0.343-0.008-0.515-0.014c-0.077-0.002-0.153-0.005-0.23-0.009
		c-0.171-0.007-0.343-0.015-0.515-0.024c-0.063-0.003-0.126-0.006-0.189-0.01c-0.23-0.014-0.461-0.028-0.692-0.045
		c-0.046-0.004-0.092-0.008-0.139-0.011c-0.191-0.015-0.383-0.029-0.575-0.045c-0.079-0.006-0.158-0.013-0.236-0.02
		c-0.172-0.015-0.344-0.029-0.517-0.044c-0.071-0.006-0.142-0.012-0.213-0.019c-0.219-0.02-0.439-0.039-0.658-0.059
		c-0.266-0.023-0.53-0.045-0.795-0.067c-0.529-0.045-1.057-0.087-1.579-0.119c-0.189-0.012-0.379-0.021-0.569-0.029
		c-0.059-0.003-0.118-0.004-0.176-0.006c-0.132-0.005-0.265-0.009-0.398-0.011c-0.072-0.001-0.144-0.001-0.215-0.002
		c-0.122,0-0.245,0.001-0.367,0.004c-0.074,0.001-0.147,0.003-0.221,0.006c-0.125,0.004-0.249,0.011-0.372,0.02
		c-0.069,0.004-0.139,0.008-0.208,0.014c-0.149,0.013-0.298,0.028-0.446,0.048c-0.041,0.005-0.083,0.008-0.124,0.014
		c-0.187,0.026-0.373,0.058-0.558,0.096c-0.052,0.011-0.104,0.024-0.155,0.036c-0.126,0.028-0.251,0.06-0.375,0.094
		c-0.227,0.063-0.452,0.135-0.673,0.222c-1.494,0.585-2.684,1.672-3.706,2.931C303.179,227.92,302.888,228.313,302.607,228.713z"/>
	<path fill="#42210B" d="M203.17,201.53c0.01,0.078,0.032,0.152,0.051,0.228c0.012,0.05,0.018,0.102,0.035,0.15
		c0.026,0.081,0.066,0.157,0.104,0.234c0.019,0.039,0.031,0.08,0.052,0.117c0.063,0.11,0.139,0.215,0.226,0.311
		c0.001,0,0.001,0.001,0.002,0.002c0.102,0.229,0.196,0.46,0.286,0.692c0.23,0.595,0.42,1.205,0.571,1.825
		c0.04,0.165,0.079,0.33,0.114,0.497c0.215,1.036,0.32,2.096,0.313,3.154c-0.003,0.423-0.023,0.847-0.062,1.268
		c-0.039,0.422-0.096,0.841-0.171,1.257c-0.075,0.416-0.167,0.829-0.279,1.237c0.073-0.105,0.151-0.205,0.234-0.301
		c0.028-0.032,0.059-0.061,0.088-0.091c0.051-0.055,0.101-0.111,0.156-0.162c0.007-0.006,0.015-0.011,0.021-0.018
		c0.067-0.061,0.14-0.116,0.213-0.171c0.037-0.028,0.07-0.059,0.109-0.085c0.113-0.078,0.232-0.149,0.358-0.212
		c0.002-0.003,0.005-0.005,0.008-0.008c0.15-0.137,0.31-0.274,0.473-0.412c0.088-0.074,0.175-0.148,0.267-0.223
		c0.264-0.212,0.541-0.42,0.827-0.614c0.173-0.116,0.35-0.226,0.528-0.331c0.331-0.194,0.672-0.362,1.018-0.498
		c0.089-0.034,0.177-0.072,0.266-0.102c-0.847-0.83-1.663-1.829-2.326-2.904c-0.166-0.269-0.321-0.542-0.466-0.818
		c-0.22-0.422-0.402-0.852-0.561-1.283c-0.12-0.326-0.221-0.652-0.299-0.979c-0.022-0.091-0.053-0.182-0.071-0.272
		c-0.052-0.257-0.095-0.516-0.137-0.775s-0.083-0.52-0.13-0.777c-0.093-0.516-0.21-1.024-0.408-1.51
		c-0.032-0.078-0.07-0.159-0.12-0.227c-0.05-0.068-0.113-0.122-0.194-0.146c-0.166-0.049-0.338,0.052-0.468,0.165h0
		c-0.06,0.052-0.108,0.114-0.159,0.174c-0.039,0.045-0.083,0.086-0.117,0.134c-0.041,0.058-0.071,0.12-0.105,0.181
		c-0.028,0.052-0.061,0.101-0.085,0.154c-0.029,0.064-0.047,0.133-0.069,0.201c-0.018,0.055-0.04,0.108-0.053,0.164
		c-0.017,0.071-0.022,0.144-0.032,0.216c-0.007,0.057-0.02,0.112-0.022,0.169c-0.004,0.074,0.003,0.148,0.007,0.224
		C203.166,201.421,203.163,201.477,203.17,201.53z"/>
	<path fill="#42210B" d="M257.537,230.866c0.13,0.16,0.274,0.312,0.428,0.455c0.077,0.072,0.157,0.143,0.239,0.211
		c0.165,0.137,0.339,0.267,0.522,0.392s0.373,0.244,0.57,0.359c0.141,0.082,0.285,0.162,0.431,0.241
		c0.161,0.086,0.323,0.171,0.489,0.254c0.21,0.105,0.425,0.209,0.64,0.312s0.432,0.205,0.648,0.307
		c0.216,0.103,0.432,0.205,0.646,0.309c0.747,0.364,1.464,0.749,2.071,1.209c0.002,0.002,0.005,0.004,0.008,0.006
		c0.033,0.024,0.068,0.049,0.104,0.072c0.013,0.008,0.026,0.014,0.039,0.021c0.027,0.017,0.056,0.031,0.084,0.044
		c0.016,0.007,0.032,0.011,0.048,0.016c0.026,0.009,0.053,0.018,0.079,0.021c0.018,0.003,0.034,0.001,0.051,0.002
		c0.032,0,0.064,0.001,0.095-0.008c0.021-0.008,0.042-0.016,0.062-0.027c0.103-0.063,0.146-0.185,0.173-0.306
		c0.005-0.021,0.011-0.043,0.015-0.064c0.216-1.099,0.342-2.219,0.671-3.289c0.255-0.829,0.626-1.601,1.073-2.332
		c0.242-0.395,0.503-0.779,0.786-1.151l0.001-0.001c1.035-1.365,2.307-2.59,3.553-3.772c0.039-0.072,0.067-0.142,0.088-0.208
		c0.104-0.334,0.008-0.612-0.078-0.951c-0.034-0.136-0.067-0.281-0.086-0.444c0-0.001,0-0.002,0-0.003
		c-0.009-0.074-0.027-0.142-0.053-0.203c-0.008-0.021-0.021-0.038-0.03-0.058c-0.021-0.039-0.043-0.077-0.07-0.11
		c-0.015-0.019-0.032-0.035-0.049-0.053c-0.029-0.028-0.059-0.055-0.092-0.079c-0.02-0.014-0.04-0.027-0.061-0.04
		c-0.037-0.021-0.076-0.039-0.116-0.055c-0.021-0.009-0.042-0.019-0.064-0.025c-0.05-0.017-0.103-0.027-0.157-0.037
		c-0.015-0.002-0.028-0.007-0.043-0.009c-0.07-0.009-0.142-0.012-0.215-0.01c-0.02,0.001-0.041,0.004-0.06,0.006
		c-0.051,0.004-0.103,0.009-0.154,0.018c-0.091,0.016-0.182,0.037-0.271,0.068c-0.229,0.082-0.409,0.261-0.58,0.434
		c-0.329,0.332-0.658,0.665-0.992,0.993c-0.167,0.164-0.335,0.326-0.505,0.487c-0.51,0.481-1.036,0.945-1.589,1.371
		c-0.185,0.143-0.372,0.28-0.563,0.412c-0.191,0.133-0.386,0.261-0.585,0.383c-0.226,0.138-0.46,0.266-0.698,0.388
		c-0.074,0.037-0.149,0.07-0.224,0.106c-0.169,0.081-0.34,0.157-0.514,0.229c-0.087,0.035-0.174,0.068-0.263,0.102
		c-0.173,0.064-0.348,0.121-0.524,0.174c-0.083,0.025-0.165,0.052-0.249,0.074c-0.235,0.062-0.473,0.114-0.711,0.153
		c-0.021,0.003-0.041,0.01-0.061,0.013c-0.003,0.001-0.007,0.001-0.01,0.002c-0.017,0.002-0.034,0.003-0.051,0.006
		c-0.19,0.027-0.381,0.046-0.573,0.058c-0.063,0.004-0.126,0.005-0.189,0.007c-0.154,0.006-0.307,0.005-0.461-0.002
		c-0.062-0.002-0.124-0.004-0.186-0.009c-0.209-0.015-0.418-0.037-0.626-0.075c-0.266-0.049-0.531-0.116-0.798-0.163
		c-0.133-0.023-0.266-0.042-0.399-0.05c-0.134-0.009-0.268-0.007-0.401,0.009c-0.069,0.009-0.138,0.023-0.206,0.043
		c-0.001,0-0.002,0-0.004,0.001c-0.087,0.024-0.171,0.061-0.252,0.102c-0.061,0.03-0.118,0.064-0.173,0.104
		c-0.027,0.02-0.054,0.039-0.08,0.061c-0.217,0.18-0.364,0.423-0.358,0.704c-0.057,0.659,0.02,1.229,0.2,1.728
		C257.066,230.192,257.276,230.547,257.537,230.866z"/>
	<path fill="#F15A24" d="M290.585,245.003c-4.127,7.022-5.133,15.787-5.793,24.204c-0.189,2.406-0.356,4.873-0.438,7.353
		l18.53,3.402c-2.207-10.273-5.17-21.124-9.332-34.215C292.469,245.685,291.452,245.381,290.585,245.003z"/>
	<path fill="#F15A24" d="M321.622,277.66l7.168-6.375c1.204-6.979,0.292-14.408-2.846-20.684c-0.455-0.908-0.968-1.785-1.517-2.642
		c-0.217-0.338-0.439-0.673-0.67-1.001c-0.621-0.883-1.284-1.737-2.012-2.544c-0.266-0.295-0.542-0.581-0.822-0.862
		c-0.056-0.057-0.112-0.113-0.169-0.17c-0.275-0.271-0.556-0.535-0.843-0.792c-0.051-0.046-0.104-0.091-0.156-0.137
		c-0.276-0.243-0.557-0.481-0.843-0.712c-0.033-0.026-0.064-0.054-0.097-0.08c-0.307-0.245-0.62-0.48-0.938-0.711
		c-0.065-0.048-0.131-0.095-0.197-0.142c-0.319-0.228-0.643-0.448-0.972-0.661c-0.038-0.024-0.077-0.048-0.115-0.072
		c-0.313-0.199-0.629-0.391-0.95-0.577c-0.054-0.031-0.107-0.063-0.161-0.094c-0.339-0.193-0.683-0.379-1.03-0.557
		c-0.068-0.035-0.137-0.069-0.206-0.104c-0.358-0.18-0.719-0.354-1.084-0.517c-0.004-0.002-0.007-0.003-0.011-0.005
		c-0.363-0.162-0.731-0.313-1.101-0.458c-0.068-0.027-0.137-0.055-0.205-0.08c-0.364-0.14-0.73-0.271-1.1-0.395
		c-0.064-0.021-0.128-0.041-0.192-0.062c-0.358-0.116-0.718-0.226-1.08-0.326c-0.031-0.009-0.062-0.019-0.094-0.026
		c-0.379-0.104-0.761-0.196-1.144-0.282c-0.077-0.018-0.155-0.035-0.232-0.052c-0.38-0.081-0.762-0.155-1.145-0.22
		c-0.051-0.008-0.102-0.015-0.152-0.023c-0.359-0.058-0.718-0.106-1.079-0.148c-0.061-0.007-0.121-0.015-0.181-0.021
		c-0.382-0.041-0.765-0.072-1.148-0.096c-0.079-0.005-0.159-0.009-0.238-0.013c-0.391-0.02-0.782-0.032-1.172-0.032
		c-0.022,0-0.044,0.001-0.066,0.001c-0.336,0.001-0.672,0.011-1.007,0.026c-0.089,0.004-0.179,0.008-0.268,0.013
		c-0.355,0.021-0.709,0.047-1.063,0.084c-0.012,0.002-0.024,0.004-0.037,0.005c-0.26,0.028-0.518,0.066-0.776,0.104
		c0.003,0.023,0.006,0.048,0.01,0.071c0.063,0.49,0.133,1.072,0.169,1.67c0.056,0.915,0.024,2.157-0.333,3.403
		C311.125,251.236,318.869,263.985,321.622,277.66z"/>
	<path fill="#F7931E" d="M297.277,244.726c-0.625,0.451-1.334,0.752-2.101,0.91c3.121,9.836,5.955,19.601,8.269,29.571
		c0.391,1.682,0.765,3.37,1.125,5.064l11.702,2.148l3.979-3.538c-2.573-14.021-10.371-26.495-21.376-35.983
		C298.457,243.638,297.926,244.257,297.277,244.726z"/>
	<path fill="#F7931E" d="M269.474,258.002c-0.123,0.245-0.25,0.488-0.367,0.736c-0.114,0.242-0.219,0.488-0.327,0.733
		c-0.479,1.082-0.913,2.185-1.286,3.309c-0.152,0.459-0.296,0.922-0.43,1.387c-0.268,0.931-0.5,1.872-0.695,2.82
		s-0.353,1.904-0.473,2.865c-0.136,1.086-0.223,2.178-0.261,3.271l17.142,3.147c0.085-2.404,0.248-4.808,0.435-7.188
		c0.089-1.135,0.185-2.276,0.293-3.423c0.109-1.146,0.231-2.294,0.374-3.44c0.27-2.175,0.615-4.341,1.073-6.466
		c0.146-0.675,0.299-1.348,0.47-2.014c0.424-1.656,0.93-3.278,1.54-4.849c0.5-1.287,1.079-2.534,1.73-3.742
		c0.159-0.294,0.314-0.589,0.482-0.878c-0.416-0.252-0.82-0.528-1.202-0.823c-1.03-0.675-1.832-1.521-2.387-2.515
		C278.75,244.993,273.007,250.902,269.474,258.002z"/>
	<path fill="#42210B" d="M286.428,238.669c0.011,0.058,0.024,0.114,0.037,0.172c0.104,0.458,0.267,0.896,0.496,1.308
		c0.431,0.776,1.078,1.459,1.93,2.007c0.174,0.136,0.355,0.269,0.542,0.397c0.187,0.128,0.379,0.252,0.575,0.371
		c0.169,0.102,0.342,0.199,0.517,0.292c0.055,0.029,0.111,0.056,0.167,0.084c0.121,0.062,0.243,0.122,0.367,0.179
		c0.067,0.03,0.134,0.059,0.202,0.088c0.052,0.022,0.105,0.043,0.158,0.064c0.064,0.025,0.128,0.053,0.193,0.078
		c0.069,0.025,0.138,0.052,0.208,0.076c0.123,0.043,0.246,0.082,0.369,0.118c0.063,0.019,0.126,0.039,0.189,0.057
		c0.164,0.044,0.327,0.081,0.491,0.112c0.022,0.005,0.045,0.011,0.067,0.015c0.063,0.012,0.125,0.017,0.188,0.025
		c0.122,0.019,0.245,0.038,0.366,0.048c0.054,0.005,0.108,0.005,0.162,0.008c0.137,0.008,0.272,0.013,0.407,0.01
		c0.041-0.001,0.082-0.003,0.122-0.005c0.174-0.009,0.347-0.022,0.517-0.052c0,0,0.001,0,0.001,0
		c0.114-0.019,0.226-0.046,0.337-0.074c0.461-0.116,0.904-0.311,1.314-0.606c0.286-0.206,0.533-0.446,0.747-0.712
		c0.214-0.267,0.395-0.559,0.545-0.869c0.138-0.283,0.25-0.583,0.341-0.892c0.059-0.2,0.104-0.406,0.146-0.613
		c0.022-0.112,0.045-0.226,0.062-0.34c0.048-0.324,0.078-0.652,0.089-0.979c0.006-0.164,0.008-0.328,0.006-0.49
		c-0.002-0.163-0.008-0.325-0.018-0.485c-0.032-0.521-0.092-1.042-0.16-1.563c-0.188-1.447-0.431-2.892-0.275-4.336
		c0.001-0.013,0.001-0.026,0.003-0.04c0.003-0.029,0.01-0.06,0.014-0.09c0.041-0.326,0.101-0.646,0.178-0.962
		c0.246-1.013,0.661-1.973,1.158-2.907c0.095-0.179,0.193-0.357,0.293-0.534c0.163-0.288,0.333-0.574,0.504-0.86
		c0.211-0.35,0.426-0.698,0.641-1.047c0.176-0.286,0.352-0.573,0.525-0.86c0.291-0.483,0.573-0.969,0.833-1.462
		c1.246-2.37,1.991-5.001,2.188-7.672c0.033-0.444,0.05-0.891,0.052-1.337c0.002-0.446-0.011-0.893-0.04-1.338
		c-0.008-0.124-0.019-0.249-0.03-0.375c-0.075-0.785-0.24-1.574-0.697-2.208c-0.06-0.083-0.128-0.16-0.199-0.234
		c-0.021-0.022-0.042-0.043-0.064-0.064c-0.056-0.053-0.114-0.104-0.175-0.152c-0.023-0.019-0.045-0.037-0.069-0.055
		c-0.083-0.061-0.169-0.118-0.259-0.168c-0.009-0.004-0.018-0.008-0.027-0.013c-0.082-0.044-0.167-0.081-0.253-0.114
		c-0.028-0.011-0.057-0.02-0.086-0.029c-0.073-0.024-0.146-0.044-0.22-0.059c-0.026-0.006-0.053-0.013-0.08-0.018
		c-0.098-0.016-0.196-0.025-0.293-0.024c-0.074,0-0.147,0.013-0.221,0.023c-0.037,0.006-0.074,0.005-0.111,0.014
		c-0.109,0.024-0.217,0.061-0.32,0.111c-0.223,1.686-0.459,3.399-0.785,5.088c-0.676,3.507-1.741,6.9-3.908,9.69
		c-0.806,1.037-1.741,1.956-2.713,2.842c-0.422,0.385-0.852,0.764-1.281,1.142c-0.269,0.237-0.538,0.475-0.805,0.714
		c-0.239,0.214-0.477,0.43-0.711,0.648c-0.234,0.218-0.467,0.44-0.696,0.668c-1.603,1.591-3.023,3.412-3.617,5.574
		c-0.001,0.007-0.003,0.014-0.005,0.02c-0.002,0.01-0.005,0.02-0.007,0.028c-0.148,0.554-0.219,1.096-0.215,1.619
		c0.001,0.175,0.011,0.348,0.028,0.518C286.376,238.383,286.4,238.526,286.428,238.669z"/>
	<path fill="#6C7D27" d="M178.484,210.951c0.195,0.624,0.498,1.215,0.896,1.734c0.317,0.414,0.691,0.784,1.111,1.093
		c0.029,0.021,0.059,0.042,0.088,0.063c0.357,0.255,0.742,0.5,0.931,0.893c0.118,0.244,0.144,0.519,0.19,0.788
		c0.015,0.09,0.032,0.179,0.056,0.267c0.066,0.244,0.176,0.464,0.318,0.663s0.317,0.378,0.513,0.54
		c0.391,0.322,0.864,0.576,1.323,0.788c0.71,0.327,1.438,0.614,2.18,0.86c2.809,0.93,5.812,1.267,8.757,0.986
		c-1.572-2.878-3.378-5.64-5.38-8.212l-0.206-0.264c-1.039-1.328-2.215-2.833-2.604-4.697c-0.044-0.213-0.029-0.429,0.037-0.625
		c0.093-0.275,0.285-0.515,0.551-0.663c0.457-0.255,1.026-0.184,1.405,0.177c3.614,3.434,6.711,7.368,9.228,11.695
		c0.026-0.062,0.055-0.123,0.081-0.185c0.033-0.081,0.067-0.162,0.099-0.243c0.082-0.205,0.158-0.411,0.231-0.619
		c0.017-0.049,0.036-0.096,0.053-0.145c0.087-0.259,0.168-0.521,0.243-0.783c0.02-0.071,0.037-0.143,0.056-0.214
		c0.052-0.196,0.103-0.392,0.147-0.589c0.021-0.094,0.041-0.188,0.061-0.281c0.038-0.181,0.073-0.363,0.105-0.546
		c0.017-0.094,0.033-0.188,0.048-0.281c0.032-0.203,0.06-0.406,0.084-0.61c0.008-0.069,0.019-0.14,0.026-0.209
		c0.029-0.273,0.052-0.547,0.068-0.82c0.003-0.059,0.004-0.116,0.007-0.174c0.01-0.217,0.017-0.435,0.019-0.651
		c0-0.093,0-0.187-0.001-0.279c-0.002-0.187-0.006-0.373-0.014-0.56c-0.004-0.096-0.008-0.191-0.014-0.287
		c-0.012-0.197-0.028-0.395-0.047-0.592c-0.008-0.078-0.014-0.156-0.022-0.234c-0.03-0.273-0.067-0.545-0.111-0.816
		c-0.006-0.037-0.014-0.073-0.021-0.11c-0.04-0.233-0.084-0.466-0.135-0.697c-0.019-0.088-0.041-0.176-0.061-0.263
		c-0.043-0.184-0.089-0.366-0.138-0.547c-0.025-0.094-0.052-0.188-0.079-0.28c-0.054-0.184-0.112-0.366-0.172-0.547
		c-0.027-0.082-0.053-0.164-0.082-0.245c-0.091-0.259-0.188-0.516-0.293-0.77c-0.535,0.077-1.07,0.154-1.605,0.232
		c-0.01-0.026-0.023-0.051-0.033-0.077c-0.515-1.339-1.368-2.544-2.456-3.479c-0.369-0.317-0.766-0.604-1.184-0.854
		c-0.192,0.193-0.385,0.386-0.578,0.579c-0.29,0.291-0.579,0.581-0.869,0.871c-2.514-2.542-5.651-4.463-9.055-5.553
		c-0.227-0.072-0.455-0.142-0.685-0.207c-0.145,0.251-0.281,0.507-0.411,0.766c-0.042,0.082-0.08,0.165-0.119,0.248
		c-0.086,0.18-0.17,0.36-0.25,0.543c-0.042,0.097-0.083,0.194-0.123,0.292c-0.072,0.177-0.141,0.354-0.207,0.532
		c-0.036,0.097-0.072,0.194-0.106,0.291c-0.074,0.211-0.142,0.424-0.206,0.638c-0.018,0.061-0.038,0.119-0.056,0.179
		c-0.079,0.274-0.151,0.551-0.215,0.829c-0.017,0.071-0.03,0.144-0.046,0.215c-0.046,0.21-0.088,0.421-0.126,0.633
		c-0.017,0.096-0.033,0.191-0.048,0.288c-0.031,0.196-0.059,0.393-0.083,0.59c-0.012,0.093-0.024,0.186-0.034,0.278
		c-0.025,0.239-0.045,0.479-0.06,0.718c-0.003,0.047-0.008,0.094-0.01,0.141c-0.016,0.286-0.022,0.573-0.023,0.859
		c0,0.078,0.003,0.156,0.003,0.235c0.003,0.21,0.008,0.421,0.019,0.631c0.005,0.098,0.011,0.194,0.018,0.291
		c0.014,0.2,0.031,0.401,0.052,0.602c0.009,0.09,0.018,0.179,0.028,0.269c0.031,0.258,0.068,0.516,0.112,0.772
		c0.004,0.026,0.007,0.053,0.012,0.079c0.049,0.281,0.108,0.563,0.172,0.842c0.019,0.081,0.041,0.162,0.061,0.242
		c0.05,0.2,0.102,0.398,0.159,0.597c0.027,0.094,0.056,0.188,0.084,0.28c0.06,0.193,0.124,0.386,0.191,0.576
		c0.029,0.083,0.058,0.167,0.088,0.25c0.1,0.268,0.206,0.534,0.321,0.798c-0.809-0.049-1.618-0.097-2.426-0.146
		C178.364,210.539,178.42,210.747,178.484,210.951z"/>
	<path fill="#424D18" d="M197.195,220.001c0.024-0.05,0.045-0.1,0.063-0.151c0.035-0.104,0.056-0.213,0.061-0.321
		c0.175-0.01,0.34-0.065,0.491-0.146c-0.186-0.35-0.364-0.703-0.558-1.049c-2.514-4.481-5.699-8.586-9.425-12.125
		c0.068,0.328,0.174,0.643,0.296,0.95c0.511,1.287,1.426,2.414,2.287,3.521c1.343,1.726,2.594,3.522,3.747,5.381
		c0.692,1.115,1.348,2.252,1.968,3.408c0.188,0.349,0.364,0.703,0.545,1.056C196.892,220.409,197.08,220.231,197.195,220.001z"/>
	<path fill="#6C7D27" d="M148.898,210.844c0.04,0.197,0.084,0.393,0.133,0.587c0.247,0.969,0.617,1.896,1.166,2.748
		c1.252,1.948,3.467,3.825,2.842,6.056c-0.023,0.082-0.05,0.165-0.08,0.247c-0.117,0.33-0.268,0.66-0.34,0.988
		c-0.055,0.246-0.065,0.491,0.017,0.734c0.021,0.063,0.047,0.122,0.078,0.179c0.215,0.394,0.653,0.645,1.073,0.835
		c2.288,1.038,4.805,1.242,7.3,0.899c0.462-0.064,0.924-0.141,1.384-0.24c0.293-0.064,0.586-0.135,0.878-0.212
		c1.457-0.388,2.879-0.939,4.214-1.6c0.166-0.081,0.331-0.175,0.496-0.274c0.029-0.018,0.058-0.034,0.087-0.053
		c0.169-0.105,0.338-0.221,0.504-0.342c0.029-0.022,0.059-0.044,0.088-0.066c0.166-0.125,0.33-0.258,0.49-0.397
		c0.023-0.021,0.045-0.041,0.068-0.062c0.166-0.148,0.328-0.302,0.484-0.463c0.006-0.007,0.011-0.013,0.017-0.019
		c0.154-0.161,0.302-0.328,0.444-0.5c0.016-0.019,0.032-0.037,0.047-0.057c0.137-0.168,0.266-0.342,0.389-0.519
		c0.021-0.029,0.042-0.06,0.062-0.089c0.118-0.175,0.228-0.353,0.329-0.533c0.018-0.031,0.035-0.063,0.052-0.095
		c0.014-0.025,0.024-0.051,0.037-0.076c-0.079-0.059-0.157-0.119-0.236-0.177c-3.053-2.229-6.343-4.152-9.779-5.717
		c-1.022-0.466-2.295-1.045-2.968-2.297c-0.236-0.44-0.176-0.98,0.152-1.357c0.081-0.094,0.175-0.172,0.277-0.234
		c0.309-0.19,0.694-0.234,1.047-0.104c4.49,1.664,8.806,3.834,12.836,6.445c0.254-0.851,0.426-1.725,0.512-2.609
		c0.036-0.37,0.058-0.741,0.065-1.113c0.007-0.371,0.001-0.744-0.02-1.116c-0.042-0.743-0.138-1.484-0.289-2.215
		c-0.641-3.104-2.255-6.007-4.698-8.033c-0.752,0.729-1.356,1.61-1.766,2.574l0,0c-1.166-1.089-2.635-1.766-4.2-2.104
		c-0.522-0.113-1.054-0.188-1.59-0.229c-0.714-0.054-1.433-0.046-2.14,0.017c-1.498,0.134-2.957,0.489-4.392,0.944
		c-1.272,0.403-2.525,0.884-3.769,1.364c-0.124,0.048-0.25,0.098-0.374,0.152c-0.009,0.004-0.018,0.009-0.027,0.013
		c-0.116,0.052-0.229,0.109-0.337,0.174c-0.013,0.009-0.026,0.017-0.04,0.025c-0.083,0.052-0.162,0.108-0.235,0.172
		c-0.01,0.009-0.018,0.018-0.027,0.026c-0.075,0.068-0.145,0.143-0.204,0.228l0,0c-0.136,0.196-0.212,0.421-0.255,0.656
		c-0.043,0.236-0.055,0.482-0.064,0.721c-0.024,0.608-0.046,1.225-0.054,1.843c-0.013,1.03,0.011,2.065,0.128,3.075
		C148.757,210.051,148.819,210.45,148.898,210.844z"/>
	<path fill="#424D18" d="M171.299,215.752c-0.755-0.479-1.517-0.947-2.292-1.395c-0.521-0.301-1.045-0.594-1.573-0.879
		c-2.643-1.429-5.386-2.672-8.203-3.716c0.06,0.112,0.128,0.217,0.204,0.315c0.075,0.1,0.158,0.192,0.246,0.28
		c0.264,0.263,0.581,0.478,0.918,0.667c0.113,0.063,0.227,0.123,0.343,0.181c0.231,0.116,0.468,0.224,0.699,0.329
		c3.516,1.601,6.868,3.562,9.987,5.84c0.356,0.26,0.709,0.523,1.059,0.791c0.35,0.269,0.696,0.54,1.04,0.816l-0.186-1.104
		l-0.124-0.733c-0.442-0.306-0.889-0.604-1.339-0.898C171.821,216.077,171.559,215.916,171.299,215.752z"/>
	<path fill="#603813" d="M168.109,259.761l-1.38,11.498l-2.614,21.766l102.328,17.807l7.132-24.139l2.381-8.059
		c0.066-0.225,0.232-0.405,0.449-0.491l3.025-1.199c-4.365-0.792-9-1.633-13.813-2.507c-0.528-0.096-1.054-0.191-1.586-0.288
		c-1.801-0.327-3.629-0.658-5.475-0.993c-3.266-0.593-6.595-1.197-9.97-1.81c-12.954-2.352-26.542-4.817-39.573-7.182
		c-0.422-0.077-0.847-0.154-1.268-0.23c-3.34-0.605-6.637-1.204-9.877-1.792c-1.413-0.257-2.817-0.511-4.205-0.763
		c-6.946-1.261-13.558-2.46-19.632-3.562c-0.617-0.112-1.228-0.223-1.833-0.333c-0.188-0.034-0.381-0.069-0.567-0.103l-1.903,1.286
		l-1.329,0.897L168.109,259.761z"/>
	<path fill="#8C6239" d="M166.641,259.234c0.026-0.219,0.146-0.415,0.329-0.539l1.016-0.687l1.346-0.909l0.048-0.032l-0.058-0.009
		l-1.609-0.235l-6.572-0.962l-1.54-0.226l-1.455-0.213l-2.706,1.387l-1.199,0.613l-4.683,33.068l13.056,2.271l2.664-22.181
		L166.641,259.234z"/>
	<path fill="#F7931E" d="M233.15,230.066c-0.128-1.409-0.578-2.763-1.447-3.978c-0.011-0.015-0.021-0.03-0.032-0.046
		c-0.113-0.154-0.236-0.306-0.362-0.456c-0.053-0.063-0.106-0.126-0.162-0.188c-0.108-0.122-0.222-0.241-0.34-0.359
		c-0.052-0.052-0.108-0.103-0.162-0.154c-0.11,2.016-0.395,3.988-2.293,5.222c-0.562,0.365-1.153,0.599-1.822,0.646
		c-0.232,0.017-1.683-0.354-1.755-0.311c-0.539,0.327-0.485,3.803-0.639,4.593c-0.619,3.177-2.933,5.509-6.009,6.45
		c-1.651,0.506-3.426,0.572-5.132,0.366c-0.436-0.054-0.872-0.146-1.309-0.249c0.005,0.624-0.032,1.259-0.115,1.901
		c1.485,1.322,3.341,2.079,5.317,2.325C222.34,240.184,229.917,233.071,233.15,230.066z"/>
	<path fill="#FBB03B" d="M265.974,241.731c-0.033-0.863-0.1-1.723-0.228-2.573c-0.069-0.462-0.153-0.921-0.251-1.377
		c-0.09-0.417-0.195-0.831-0.31-1.243c-0.086,0.027-0.175,0.048-0.265,0.062c-0.547,0.086-1.092-0.074-1.619-0.474
		c-0.702-0.532-1.637-0.973-2.627-1.438c-2.44-1.149-5.777-2.722-5.473-6.688c0.016-0.714,0.378-1.374,0.953-1.837
		c-0.018-0.009-0.035-0.019-0.052-0.028c-0.129-0.071-0.259-0.142-0.392-0.208c-0.096-0.049-0.194-0.094-0.292-0.141
		c-0.13-0.062-0.26-0.121-0.392-0.179c-0.102-0.044-0.206-0.087-0.309-0.129c-0.132-0.053-0.265-0.105-0.399-0.155
		c-0.106-0.039-0.213-0.077-0.321-0.113c-0.135-0.047-0.271-0.091-0.407-0.133c-0.109-0.034-0.219-0.068-0.329-0.1
		c-0.139-0.04-0.278-0.076-0.418-0.112c-0.11-0.028-0.22-0.057-0.33-0.083c-0.145-0.033-0.29-0.063-0.436-0.093
		c-0.108-0.022-0.215-0.046-0.324-0.065c-0.155-0.028-0.311-0.052-0.467-0.075c-0.099-0.015-0.199-0.032-0.298-0.046
		c-0.199-0.026-0.398-0.047-0.598-0.066c-0.057-0.005-0.113-0.014-0.17-0.018c-0.253-0.021-0.507-0.037-0.76-0.046
		c-0.09-0.004-0.18-0.003-0.27-0.005c-0.166-0.003-0.331-0.007-0.496-0.005c-0.104,0.001-0.208,0.007-0.311,0.01
		c-0.149,0.005-0.299,0.01-0.447,0.019c-0.108,0.007-0.215,0.017-0.323,0.025c-0.142,0.013-0.284,0.024-0.425,0.041
		c-0.108,0.012-0.216,0.027-0.323,0.042c-0.119,0.016-0.237,0.034-0.354,0.053c-0.323,0.054-0.642,0.113-0.953,0.189
		c-0.202,0.049-0.401,0.104-0.601,0.159c-0.129,0.036-0.256,0.073-0.384,0.112c-1.686,0.508-3.292,1.237-4.832,2.108
		c-1.512,0.854-2.957,1.846-4.355,2.885c-1.747,1.614-10.896,10.105-17.226,16.632c-0.119,0.141-0.239,0.279-0.355,0.422
		c-1.558,1.912-3.051,3.876-4.489,5.877c0.782,3.249,1.287,7.329,0.169,10.611l36.539,6.709c1.354-1.049,2.671-2.145,3.926-3.302
		c0.669-0.617,1.312-1.258,1.944-1.908C254.797,254.616,258.299,248.775,265.974,241.731z"/>
</g>
<g>
	<path fill="#424D18" d="M218.125,78.451c0.586-0.351,1.24-0.817,1.798-1.373c0.882,0.488,1.879,0.792,2.845,0.912
		c4.319,0.539,8.642-2.126,10.935-5.661c0.346-0.533-0.957-1.784-1.212-1.391c-1.728,2.663-4.492,4.75-7.623,5.421
		c-1.39,0.299-2.861,0.3-4.216-0.152c0.458-0.683,0.717-1.45,0.569-2.274c-0.237-1.324-2.018-3.39-3.505-2.394
		c-1.323,0.887-0.368,2.996,0.338,3.949c0.117,0.158,0.245,0.307,0.38,0.45c-0.27,0.245-0.557,0.47-0.844,0.677
		c-1.33,0.957-2.893,1.528-4.51,1.752c-3.59,0.495-7.129-0.767-9.3-3.702c-0.838-1.134-1.635-2.357-2.646-3.349
		c0.657-2.13-1.021-4.719-2.82-5.753c-2.886-1.66-6.648-0.416-8.84,1.838c-2.473,2.543-2.316,5.802-1.046,8.885
		c1.327,3.223,3.629,6.493,2.259,10.1c-1.155,3.039-4.216,5.353-7.364,6.217c0.827-1.222,1.339-2.633,1.332-4.15
		c-0.014-2.729-2.018-5.488-4.481-6.578c-2.918-1.29-5.938,0.433-6.766,3.439c-0.905,3.286,1.267,6.52,4.074,8.074
		c0.532,0.295,1.081,0.517,1.64,0.684c-3.512,2.187-7.958,2.052-11.963,1.719c-0.763-0.063,0.206,1.428,0.736,1.472
		c3.847,0.32,7.972,0.509,11.521-1.275c0.813-0.409,1.591-0.937,2.29-1.554c2.086-0.017,4.181-0.719,5.98-1.856
		c2.889-1.826,5.192-4.938,4.748-8.501c-0.437-3.501-2.933-6.304-3.519-9.743c-0.735-4.314,3.369-8.213,7.604-8.036
		c2.024,0.084,3.8,1.484,3.3,3.681c-0.02,0.086-0.046,0.169-0.074,0.251c-0.083-0.051-0.167-0.101-0.253-0.147
		c-1.559-0.839-3.621-1.082-4.958,0.278c-0.099,0.101-0.081,0.273-0.04,0.394c0.793,2.353,4.27,3.876,6.081,1.62
		c0.066-0.082,0.125-0.167,0.182-0.252c0.518,0.495,0.958,1.088,1.387,1.684c1.315,1.826,2.63,3.521,4.618,4.654
		C210.204,80.421,214.696,80.496,218.125,78.451z M218.927,72.931c1.3-0.777,0.937,1.092,0.606,1.68
		c-0.145,0.258-0.321,0.498-0.515,0.726c-0.148-0.146-0.277-0.313-0.372-0.516C218.37,74.229,218.275,73.32,218.927,72.931z
		 M180.603,92.943c-3.39-0.147-6.851-2.432-5.898-6.29c0.801-3.25,4.636-5.099,7.225-2.501
		C184.568,86.801,182.982,90.716,180.603,92.943z M198.095,71.826c-0.559,0.17-1.735,0.281-2.179-0.238
		c0.816-0.712,1.87-0.853,2.925-0.58c0.13,0.034,0.254,0.075,0.376,0.12C198.921,71.449,198.54,71.691,198.095,71.826z"/>
	<path fill="#F15A24" d="M121.27,130.447c4.778-10.155,12.986-18.957,23.223-24.965c-0.394-1.449-0.416-3.004-0.059-4.596
		c-0.116-0.002-0.232-0.006-0.347-0.007c-0.477-0.005-0.953,0.011-1.429,0.025c-0.294,0.009-0.589,0.01-0.882,0.026
		c-0.507,0.027-1.012,0.076-1.517,0.125c-0.237,0.022-0.475,0.035-0.712,0.063c-0.743,0.086-1.484,0.192-2.22,0.324
		c-0.017,0.003-0.033,0.007-0.05,0.01c-0.719,0.129-1.434,0.28-2.145,0.45c-0.232,0.057-0.462,0.125-0.694,0.186
		c-0.492,0.128-0.984,0.257-1.471,0.404c-0.275,0.084-0.547,0.18-0.82,0.27c-0.438,0.144-0.875,0.287-1.308,0.446
		c-0.289,0.105-0.574,0.223-0.86,0.336c-0.411,0.162-0.82,0.326-1.225,0.503c-0.291,0.127-0.578,0.262-0.866,0.396
		c-0.392,0.182-0.782,0.368-1.167,0.563c-0.288,0.146-0.573,0.298-0.857,0.451c-0.375,0.203-0.749,0.411-1.117,0.626
		c-0.281,0.164-0.559,0.331-0.836,0.502c-0.362,0.224-0.72,0.455-1.075,0.691c-0.27,0.18-0.538,0.36-0.803,0.547
		c-0.351,0.247-0.695,0.503-1.037,0.762c-0.255,0.193-0.511,0.385-0.761,0.584c-0.341,0.272-0.673,0.556-1.005,0.841
		c-0.236,0.202-0.475,0.402-0.705,0.61c-0.336,0.305-0.661,0.622-0.986,0.939c-0.21,0.205-0.425,0.404-0.63,0.615
		c-0.348,0.356-0.681,0.729-1.014,1.101c-0.166,0.185-0.339,0.363-0.5,0.552c-0.486,0.567-0.957,1.149-1.405,1.748
		c-0.069,0.092-0.133,0.187-0.202,0.279c-0.338,0.461-0.665,0.931-0.979,1.408c-0.399,0.604-0.778,1.222-1.138,1.85
		c-0.935,1.63-1.743,3.33-2.414,5.085c-1.468,3.84-2.3,7.929-2.471,12.043c-0.24,5.759,0.815,11.567,3.229,16.807
		c0.901,1.955,2.02,3.886,3.729,5.195c0.191,0.146,0.389,0.284,0.591,0.415c0.404,0.263,0.826,0.497,1.254,0.722
		c0.464,0.244,0.936,0.478,1.4,0.721C115.409,150.171,116.905,139.721,121.27,130.447z"/>
	<path fill="#F15A24" d="M155.98,113.927c-1.451-0.084-2.816-0.491-3.979-0.999c-5.537,9.421-6.886,21.177-7.771,32.467
		c-0.619,7.887-1.127,16.253,0.018,24.205c0.104,0.722-0.17,1.438-0.71,1.906c0.082,0.103,0.161,0.208,0.248,0.305
		c0.05,0.057,0.104,0.109,0.156,0.164c0.109,0.116,0.221,0.23,0.337,0.34c0.064,0.06,0.13,0.117,0.197,0.175
		c0.111,0.098,0.224,0.191,0.339,0.282c0.071,0.055,0.142,0.109,0.215,0.163c0.12,0.088,0.243,0.171,0.367,0.253
		c0.071,0.046,0.142,0.094,0.214,0.138c0.144,0.088,0.291,0.171,0.439,0.25c0.057,0.031,0.112,0.064,0.169,0.094
		c0.207,0.106,0.419,0.206,0.635,0.299c0.045,0.02,0.093,0.036,0.139,0.055c0.173,0.071,0.347,0.139,0.524,0.202
		c0.08,0.028,0.162,0.053,0.243,0.08c0.147,0.048,0.295,0.096,0.445,0.139c0.089,0.025,0.179,0.049,0.269,0.073
		c0.146,0.038,0.294,0.074,0.442,0.108c0.09,0.021,0.181,0.041,0.271,0.06c0.157,0.032,0.315,0.062,0.474,0.089
		c0.083,0.015,0.165,0.03,0.248,0.043c0.199,0.031,0.399,0.058,0.601,0.081c0.042,0.005,0.083,0.012,0.126,0.017
		c0.245,0.026,0.491,0.048,0.737,0.064c0.067,0.004,0.134,0.006,0.202,0.01c0.18,0.011,0.359,0.02,0.539,0.024
		c0.088,0.002,0.176,0.003,0.265,0.005c0.145,0.002,0.289,0.002,0.433,0.001c0.2-0.001,0.398-0.006,0.597-0.013
		c0.093-0.004,0.186-0.006,0.279-0.01c0.285-0.015,0.568-0.032,0.849-0.057c0.004-0.001,0.008-0.001,0.012-0.001
		c4.441-0.389,8.792-1.734,12.694-3.892c1.064-0.588,2.095-1.236,3.085-1.941c0.085-0.061,0.168-0.126,0.253-0.188
		c-0.203-0.262-0.354-0.565-0.417-0.902C167.07,151.747,162.679,134.998,155.98,113.927z"/>
	<path fill="#F15A24" d="M197.396,116.896c-0.291-0.454-0.589-0.902-0.899-1.344c-0.833-1.184-1.723-2.329-2.698-3.411
		c-0.357-0.396-0.727-0.779-1.103-1.157c-0.076-0.076-0.151-0.152-0.227-0.228c-0.368-0.362-0.745-0.718-1.13-1.063
		c-0.069-0.063-0.14-0.122-0.209-0.184c-0.37-0.326-0.747-0.646-1.131-0.955c-0.044-0.035-0.086-0.072-0.13-0.107
		c-0.411-0.328-0.831-0.645-1.257-0.953c-0.088-0.063-0.176-0.127-0.265-0.19c-0.428-0.305-0.862-0.602-1.304-0.886
		c-0.051-0.033-0.104-0.064-0.154-0.098c-0.419-0.267-0.845-0.524-1.275-0.773c-0.072-0.042-0.144-0.085-0.216-0.127
		c-0.455-0.259-0.916-0.507-1.382-0.746c-0.091-0.047-0.184-0.093-0.276-0.139c-0.48-0.241-0.964-0.475-1.454-0.693
		c-0.005-0.002-0.01-0.004-0.015-0.006c-0.487-0.218-0.981-0.42-1.478-0.615c-0.092-0.036-0.183-0.072-0.275-0.107
		c-0.488-0.188-0.979-0.363-1.475-0.528c-0.086-0.028-0.172-0.056-0.258-0.083c-0.48-0.155-0.963-0.303-1.449-0.437
		c-0.042-0.013-0.083-0.025-0.125-0.037c-0.508-0.139-1.021-0.263-1.535-0.378c-0.104-0.023-0.208-0.046-0.312-0.068
		c-0.51-0.109-1.021-0.21-1.535-0.295c-0.068-0.012-0.137-0.021-0.205-0.031c-0.481-0.077-0.963-0.144-1.447-0.199
		c-0.081-0.01-0.162-0.021-0.243-0.029c-0.513-0.056-1.026-0.098-1.541-0.128c-0.106-0.007-0.213-0.012-0.32-0.018
		c-0.524-0.026-1.049-0.044-1.572-0.044c-0.03,0-0.059,0.001-0.088,0.002c-0.451,0.001-0.901,0.014-1.351,0.035
		c-0.12,0.005-0.239,0.011-0.358,0.018c-0.476,0.027-0.952,0.063-1.426,0.113c-0.016,0.001-0.033,0.004-0.049,0.005
		c-0.349,0.038-0.695,0.09-1.042,0.14c0.004,0.031,0.009,0.063,0.013,0.096c0.085,0.658,0.179,1.438,0.228,2.24
		c0.074,1.228,0.032,2.893-0.447,4.564c16.782,14.269,27.553,33.02,30.4,52.981c0.193-0.035,0.386-0.07,0.577-0.116
		c0.576-0.137,1.116-0.336,1.623-0.59c3.544-1.778,5.431-6.215,6.303-10.265c2.131-9.896,1.039-20.64-3.453-29.623
		C198.819,119.22,198.13,118.043,197.396,116.896z"/>
	<path fill="#F7931E" d="M163.119,110.106c-0.559,0.991-1.271,1.821-2.142,2.45c-0.839,0.605-1.789,1.009-2.818,1.221
		c4.186,13.193,7.987,26.291,11.092,39.664c0.544,2.344,1.067,4.695,1.567,7.058c0.5,2.362,0.978,4.735,1.431,7.12
		c0.007-0.006,0.014-0.011,0.021-0.017c0.008-0.007,0.017-0.014,0.025-0.021c0.293,0.202,0.596,0.38,0.902,0.545
		c0.077,0.041,0.153,0.082,0.231,0.121c0.308,0.155,0.62,0.3,0.939,0.42h0c0.321,0.121,0.649,0.219,0.979,0.306
		c0.083,0.022,0.165,0.043,0.248,0.063c0.33,0.078,0.662,0.146,0.998,0.191c0.001,0,0.003,0.001,0.005,0.001
		c0.339,0.046,0.681,0.07,1.025,0.086c0.086,0.004,0.172,0.007,0.259,0.008c0.342,0.008,0.685,0.006,1.029-0.016
		c0.001,0,0.003,0,0.005,0c0.347-0.021,0.695-0.063,1.042-0.113c0.086-0.013,0.173-0.026,0.26-0.04
		c0.346-0.057,0.691-0.122,1.035-0.206c0,0,0.001,0,0.001,0c0.346-0.083,0.689-0.185,1.031-0.293
		c0.084-0.027,0.169-0.055,0.253-0.083c0.339-0.114,0.676-0.237,1.009-0.374c0-0.001,0.001-0.001,0.001-0.001
		c0.334-0.139,0.662-0.292,0.987-0.453c0.081-0.04,0.162-0.081,0.242-0.122c0.645-0.332,1.27-0.706,1.867-1.117
		c0.074-0.052,0.148-0.104,0.222-0.156c0.59-0.42,1.152-0.878,1.677-1.366c0.066-0.062,0.132-0.123,0.196-0.186
		c0.257-0.247,0.509-0.5,0.746-0.762c0.001-0.001,0.002-0.002,0.003-0.003c0.523-0.577,1.031-1.195,1.614-1.705
		c0.189-0.165,0.389-0.314,0.597-0.451c0.193-0.127,0.393-0.245,0.607-0.339C189.499,141.442,178.703,123.542,163.119,110.106z"/>
	<path fill="#F7931E" d="M145.076,124.647c0.569-2.221,1.248-4.396,2.066-6.503c0.67-1.726,1.447-3.398,2.321-5.02
		c0.212-0.395,0.421-0.79,0.646-1.178c-0.557-0.338-1.1-0.709-1.612-1.104c-1.381-0.904-2.457-2.039-3.202-3.372
		c-9.167,5.444-16.871,13.37-21.611,22.894c-0.164,0.329-0.335,0.655-0.492,0.988c-0.153,0.324-0.293,0.655-0.439,0.983
		c-0.644,1.451-1.225,2.93-1.725,4.438c-0.204,0.616-0.396,1.236-0.576,1.86c-0.36,1.248-0.671,2.511-0.933,3.783
		s-0.473,2.555-0.634,3.843c-0.241,1.933-0.369,3.878-0.38,5.822c0,0.01,0,0.019,0,0.028c-0.006,1.251,0.038,2.501,0.128,3.747
		c0.057,0.771,0.135,1.538,0.229,2.304c0.147,1.195,0.335,2.385,0.575,3.564c0.911,0.804,1.695,1.749,2.527,2.644
		c0.274,0.295,0.553,0.584,0.844,0.86c0.002,0.002,0.004,0.004,0.006,0.006c0.251,0.238,0.511,0.463,0.775,0.681
		c0.086,0.07,0.174,0.137,0.262,0.205c0.187,0.146,0.376,0.29,0.57,0.427c0.101,0.071,0.203,0.141,0.305,0.21
		c0.193,0.129,0.389,0.253,0.587,0.373c0.099,0.061,0.196,0.121,0.296,0.179c0.248,0.144,0.499,0.278,0.754,0.408
		c0.05,0.025,0.099,0.054,0.15,0.079c0.306,0.151,0.618,0.293,0.934,0.426c0.093,0.039,0.188,0.075,0.282,0.112
		c0.228,0.092,0.457,0.18,0.689,0.263c0.116,0.041,0.233,0.081,0.351,0.12c0.219,0.073,0.441,0.143,0.664,0.208
		c0.116,0.034,0.231,0.068,0.348,0.101c0.255,0.07,0.513,0.135,0.772,0.196c0.082,0.019,0.162,0.041,0.244,0.059
		c0.34,0.076,0.682,0.144,1.026,0.204c0.087,0.015,0.175,0.026,0.263,0.041c0.261,0.042,0.523,0.082,0.786,0.116
		c0.123,0.016,0.246,0.029,0.369,0.044c0.235,0.026,0.47,0.051,0.706,0.071c0.125,0.011,0.25,0.021,0.375,0.031
		c0.255,0.019,0.51,0.032,0.765,0.045c0.1,0.004,0.2,0.011,0.3,0.014c0.35,0.013,0.7,0.019,1.05,0.019
		c0.522-0.001,1.042-0.019,1.562-0.045c0.126-0.006,0.251-0.014,0.377-0.021c0.515-0.033,1.029-0.073,1.537-0.128
		c0.003-0.001,0.006-0.001,0.009-0.001c0.142-0.016,0.286-0.031,0.431-0.044c0.023-0.002,0.047-0.004,0.07-0.006
		c0.144-0.012,0.286-0.019,0.429-0.021c0.016,0,0.031-0.002,0.047-0.002c0.019,0,0.037,0.002,0.055,0.003
		c0.06,0.001,0.118,0.003,0.177,0.007c0.041,0.003,0.081,0.005,0.121,0.009c0.06,0.007,0.118,0.016,0.177,0.025
		c0.038,0.006,0.075,0.012,0.112,0.02c0.063,0.014,0.125,0.032,0.187,0.052c0.03,0.01,0.061,0.017,0.09,0.027
		c0.091,0.033,0.18,0.072,0.266,0.121c0.021,0.012,0.04,0.026,0.061,0.039c-1.163-8.079-0.676-16.48-0.033-24.675
		c0.12-1.521,0.248-3.054,0.394-4.59c0.146-1.537,0.311-3.078,0.501-4.616c0.362-2.917,0.825-5.822,1.439-8.672
		C144.641,126.443,144.847,125.541,145.076,124.647z"/>
	<path fill="#42210B" d="M146.425,104.433c0.015,0.077,0.032,0.153,0.049,0.23c0.14,0.614,0.359,1.203,0.665,1.754
		c0.579,1.042,1.447,1.957,2.589,2.691c0.234,0.183,0.477,0.361,0.727,0.533c0.25,0.173,0.508,0.339,0.771,0.498
		c0.227,0.138,0.458,0.268,0.693,0.392c0.074,0.039,0.15,0.075,0.225,0.113c0.162,0.083,0.326,0.163,0.491,0.238
		c0.09,0.041,0.18,0.08,0.271,0.119c0.07,0.03,0.141,0.057,0.211,0.086c0.086,0.035,0.172,0.071,0.259,0.104
		c0.092,0.035,0.186,0.07,0.278,0.103c0.165,0.059,0.33,0.11,0.495,0.159c0.084,0.025,0.169,0.053,0.254,0.075
		c0.219,0.06,0.438,0.109,0.658,0.151c0.03,0.006,0.061,0.015,0.09,0.02c0.084,0.016,0.168,0.021,0.253,0.034
		c0.164,0.024,0.328,0.051,0.491,0.064c0.073,0.006,0.146,0.006,0.218,0.011c0.183,0.01,0.364,0.017,0.545,0.012
		c0.055-0.001,0.109-0.003,0.164-0.006c0.233-0.012,0.465-0.031,0.693-0.069h0.002c0.152-0.025,0.302-0.063,0.452-0.1
		c0.619-0.156,1.213-0.416,1.762-0.813c0.383-0.276,0.715-0.599,1.002-0.955c0.287-0.357,0.529-0.749,0.731-1.166
		c0.185-0.38,0.336-0.781,0.458-1.196c0.079-0.269,0.14-0.544,0.195-0.822c0.03-0.15,0.061-0.302,0.083-0.455
		c0.065-0.435,0.104-0.875,0.12-1.314c0.008-0.221,0.01-0.439,0.007-0.658c-0.003-0.218-0.011-0.436-0.024-0.65
		c-0.042-0.699-0.124-1.398-0.214-2.096c-0.251-1.941-0.578-3.879-0.369-5.815c0.001-0.018,0.002-0.036,0.004-0.054
		c0.005-0.04,0.013-0.08,0.018-0.12c0.054-0.438,0.136-0.868,0.238-1.291c0.33-1.358,0.886-2.646,1.553-3.899
		c0.127-0.24,0.259-0.479,0.394-0.717c0.218-0.387,0.446-0.771,0.677-1.153c0.283-0.469,0.571-0.937,0.859-1.404
		c0.237-0.384,0.472-0.769,0.705-1.154c0.39-0.648,0.769-1.3,1.117-1.961c1.671-3.18,2.671-6.708,2.935-10.29
		c0.044-0.597,0.067-1.195,0.07-1.793c0.003-0.599-0.015-1.198-0.054-1.795c-0.011-0.167-0.024-0.335-0.041-0.503
		c-0.1-1.054-0.321-2.111-0.936-2.963c-0.08-0.11-0.171-0.214-0.267-0.314c-0.028-0.029-0.057-0.057-0.086-0.085
		c-0.075-0.072-0.153-0.141-0.234-0.205c-0.031-0.024-0.061-0.05-0.092-0.072c-0.112-0.082-0.228-0.159-0.348-0.226
		c-0.012-0.007-0.024-0.011-0.036-0.017c-0.11-0.06-0.224-0.109-0.34-0.153c-0.038-0.015-0.076-0.027-0.115-0.04
		c-0.098-0.032-0.196-0.059-0.295-0.079c-0.036-0.008-0.071-0.017-0.107-0.023c-0.13-0.021-0.262-0.033-0.393-0.032
		c-0.1,0-0.198,0.017-0.296,0.031c-0.049,0.008-0.1,0.007-0.149,0.018c-0.146,0.033-0.291,0.082-0.429,0.15
		c-0.299,2.261-0.617,4.56-1.053,6.824c-0.907,4.703-2.335,9.256-5.242,12.997c-1.081,1.392-2.335,2.624-3.639,3.813
		c-0.567,0.516-1.143,1.024-1.719,1.532c-0.361,0.318-0.721,0.636-1.079,0.957c-0.32,0.287-0.639,0.576-0.954,0.869
		c-0.314,0.292-0.626,0.591-0.934,0.896c-2.149,2.134-4.055,4.577-4.852,7.478c-0.002,0.009-0.004,0.018-0.007,0.027
		c-0.003,0.012-0.006,0.024-0.009,0.036c-0.199,0.743-0.293,1.471-0.289,2.173c0.002,0.234,0.015,0.466,0.039,0.693
		C146.356,104.049,146.389,104.242,146.425,104.433z"/>
</g>
<g>
	<path fill="#424D18" d="M359.85,196.997c-5.4,2.398-12.283,0.928-16.151-3.579c-0.992-1.156-2.245-2.824-2.079-4.428
		c0.026-0.251,0.086-0.488,0.171-0.715c1.355,0.733,2.856,1.168,4.39,1.332c1.554,0.167,4.007,0.248,4.72-1.509
		c0.533-1.312-0.403-2.754-1.461-3.48c-1.346-0.924-3.113-0.95-4.656-0.605c-1.577,0.353-3.014,1.163-3.885,2.298
		c-1.043-0.935-1.748-2.204-1.851-3.829c-0.112-1.764,0.689-3.286,2.079-4.342c1.366-1.036,3.028-1.66,4.245-2.894
		c0.082-0.083,0.159-0.167,0.233-0.253c2.582,0.043,5.168-0.948,6.737-3.074c1.679-2.272,1.938-5.351,0.411-7.765
		c-1.964-3.102-5.58-4.308-8.934-5.233c-2.14-0.591-4.715-1.282-6.445-2.778c1.746-1.256,3.234-2.897,4.122-4.766
		c1.499-3.156-2.538-5.06-5.105-3.954c-3.137,1.352-3.061,5.187-1.415,7.689c0.081,0.123,0.165,0.242,0.25,0.358
		c-0.677,0.432-1.391,0.805-2.13,1.102c-3.101,1.244-6.67,1.057-9.469-0.846c-0.164-0.111-0.323-0.229-0.478-0.35
		c0.455-0.387,0.9-0.785,1.332-1.199c1.447-1.388,2.74-2.948,3.721-4.701c0.9-1.608,1.744-3.51,1.586-5.394
		c-0.141-1.698-1.241-3.267-2.844-3.885c-1.481-0.57-3.138-0.107-4.448,0.685c-2.686,1.623-4.172,4.825-4.081,7.91
		c0.07,2.395,1.044,4.46,2.546,6.075c-1.068,0.851-2.188,1.64-3.323,2.386c-1.482,0.975-3.005,1.884-4.533,2.784
		c-0.678,0.398,0.706,1.593,1.308,1.238c2.708-1.595,5.419-3.233,7.879-5.193c3.052,2.362,7.387,3.274,11.057,2.107
		c1.046-0.332,2.088-0.812,3.073-1.412c2.398,2.13,5.83,2.886,8.852,3.769c2.123,0.621,4.39,1.445,5.788,3.262
		c1.191,1.548,1.355,3.555,0.692,5.359c-0.87,2.366-2.907,3.842-5.213,4.304c0.653-1.686,0.211-3.528-1.679-4.61
		c-1.822-1.043-6.546-1.506-6.479,1.709c0.048,2.317,2.729,3.602,4.959,4.129c-1.895,1.48-4.627,2.385-5.538,4.688
		c-1.142,2.889,0.238,6.027,2.52,7.911c-0.403,0.984-0.413,2.134,0.156,3.392c2.681,5.927,9.796,9.313,16.089,8.755
		c1.591-0.141,3.129-0.563,4.587-1.21C361.842,197.932,360.492,196.711,359.85,196.997z M344.256,185.893
		c1.18-0.571,3.365-1.212,4.558-0.396c0.664,0.454,0.789,1.438,0.286,2.059c-0.66,0.815-1.982,0.799-2.926,0.746
		c-1.327-0.075-2.66-0.402-3.81-0.993C342.869,186.701,343.563,186.229,344.256,185.893z M321.865,154.121
		c-1.41-1.713-2.072-3.933-1.725-6.224c0.425-2.806,2.317-5.679,5.182-6.447c0.942-0.253,1.851-0.226,2.405,0.68
		c0.516,0.843,0.515,1.876,0.334,2.818c-0.341,1.774-1.269,3.468-2.292,4.938C324.665,151.476,323.327,152.866,321.865,154.121z
		 M336.208,154.78c-0.314-0.517-0.548-1.101-0.676-1.767c-0.283-1.476,0.136-3.046,1.405-3.936c0.938-0.658,3.7-1.288,3.223,0.747
		c-0.351,1.495-1.792,3.003-2.87,4.031C336.948,154.183,336.585,154.49,336.208,154.78z M342.887,173.362
		c-0.85-0.224-1.952-0.572-2.522-1.294c-0.66-0.837-0.282-1.85,0.604-2.315c1.541-0.81,4.531-0.316,4.277,1.885
		c-0.09,0.785-0.382,1.424-0.801,1.974C343.923,173.578,343.4,173.497,342.887,173.362z"/>
	<path fill="#F7931E" d="M307.386,139.883c-1.777-5.158-4.817-9.366-8.617-11.895c-4.092-2.723-9.208-3.413-13.367-1.951
		c4.199,6.645,7.174,13.867,8.486,20.605C299.288,145.102,303.723,142.875,307.386,139.883z"/>
	<path fill="#F7931E" d="M303.331,178.431c-2.207-6.381-6.2-12.259-9.011-16.125c-0.03-0.041-0.045-0.088-0.071-0.13
		c-0.193-0.017-0.385-0.033-0.577-0.065c-2.852,11.071-5.918,22.201-9.126,33.144c5.265,0.219,10.263-1.203,13.875-3.981
		c3.703-2.849,5.971-7.346,5.989-11.627C303.919,179.406,303.521,178.981,303.331,178.431z"/>
	<path fill="#F7931E" d="M288.461,158.801c-0.637-0.898-1.077-1.907-1.275-2.958c-0.019-0.1-0.027-0.199-0.042-0.3
		c-8.693,1.041-17.391,2.971-25.816,4.852c-7.269,1.621-14.784,3.298-21.568,6.437c-1.808,0.838-3.586,1.599-5.305,2.335
		l-0.978,0.419c-0.006,0.003-0.013,0.004-0.019,0.006c-0.97,5.52,0.257,11.142,3.33,15.124c2.965,3.843,7.687,6.044,12.186,5.813
		c0.184-0.433,0.507-0.807,0.948-1.043c11.81-6.317,21.668-13.188,30.136-21.007C283.129,165.643,286.256,162.507,288.461,158.801z"
		/>
	<path fill="#F7931E" d="M243.576,137.752c0.719-0.017,1.438-0.025,2.153-0.025c14.656,0,29.218,3.387,42.289,9.808
		c-2.018-2.646-5.112-4.729-8.595-6.92c-4.212-2.649-12.9-6.437-21.127-9.21c-0.609-0.205-1.092-0.674-1.315-1.276
		c-0.007-0.02-0.008-0.041-0.015-0.061c-2.468-0.385-5.143,0.062-7.565,1.323C246.649,132.822,244.568,135.118,243.576,137.752z"/>
	<path fill="#F15A24" d="M309.57,160.8c-0.196-0.572-0.419-1.136-0.667-1.687c-0.191-0.425-0.402-0.839-0.624-1.248
		c-0.211-0.391-0.431-0.775-0.669-1.15c-0.285,0.214-0.573,0.422-0.864,0.625c-2.337,1.638-4.853,2.959-7.493,3.934
		c-0.956,0.353-1.773,0.589-2.533,0.738c0.236,0.331,0.475,0.659,0.708,0.994c2.934,4.206,5.594,8.676,7.414,13.415
		c0.168,0.438,0.344,0.872,0.497,1.314c-0.003-0.022-0.007-0.047-0.011-0.07c-0.014-0.098-0.028-0.196-0.046-0.294
		c0.965-0.308,1.788-0.854,2.477-1.557c0.275-0.282,0.529-0.589,0.763-0.915c0.233-0.327,0.445-0.674,0.638-1.035
		c0.191-0.362,0.363-0.738,0.515-1.124c0.094-0.238,0.177-0.481,0.256-0.726c0.24-0.745,0.414-1.512,0.52-2.268
		c0.335-2.396,0.198-4.854-0.372-7.206C309.936,161.953,309.766,161.372,309.57,160.8z"/>
	<path fill="#F15A24" d="M287.641,176.529c1.371-5.012,2.707-10.033,4.002-15.064c-0.07-0.033-0.142-0.06-0.211-0.095
		c-0.518-0.265-1.006-0.594-1.462-0.967c-0.423,0.678-0.865,1.344-1.341,1.988c-0.688,0.93-1.424,1.827-2.196,2.698
		c-0.386,0.435-0.781,0.863-1.182,1.286c-1.205,1.269-2.472,2.482-3.751,3.664c-5.775,5.331-11.962,10.021-18.486,14.228
		c-2.609,1.684-5.272,3.29-7.985,4.83c-0.961,0.546-1.936,1.074-2.909,1.604c-0.4,0.218-0.793,0.443-1.195,0.658
		c0.106-0.021,0.212-0.041,0.318-0.064c0.214,0.959,0.562,1.874,1.018,2.734c0.228,0.431,0.482,0.847,0.761,1.248
		c0.279,0.401,0.582,0.788,0.905,1.158c0.485,0.555,1.017,1.072,1.586,1.549c0.379,0.318,0.774,0.617,1.183,0.896
		c0.613,0.419,1.255,0.794,1.917,1.12c0.43,0.212,0.868,0.403,1.312,0.579c0.149,0.06,0.303,0.106,0.454,0.162
		c0.298,0.109,0.595,0.219,0.898,0.314c0.182,0.057,0.367,0.103,0.551,0.154c0.276,0.078,0.552,0.158,0.831,0.226
		c0.199,0.047,0.4,0.085,0.6,0.128c0.269,0.057,0.537,0.115,0.808,0.163c0.208,0.036,0.417,0.065,0.626,0.097
		c0.267,0.04,0.533,0.082,0.801,0.114c0.213,0.025,0.427,0.045,0.641,0.066c0.266,0.026,0.532,0.052,0.799,0.071
		c0.216,0.016,0.432,0.026,0.648,0.037c0.266,0.015,0.532,0.027,0.798,0.035c0.217,0.006,0.435,0.009,0.652,0.012
		c0.355,0.004,0.71,0.009,1.063,0.004c4.297-0.063,9.191-1.141,11.261-4.905c0.044-0.081,0.088-0.163,0.134-0.245
		c0.045-0.081,0.093-0.161,0.145-0.238c0.051-0.077,0.106-0.15,0.167-0.217c0.062-0.065,0.128-0.126,0.204-0.176
		c0.12-0.405,0.234-0.812,0.354-1.218c0.757-2.577,1.509-5.155,2.246-7.738C285.638,183.801,286.646,180.167,287.641,176.529z"/>
	<path fill="#F15A24" d="M264.179,131.255c0.633,0.239,1.263,0.482,1.89,0.728c3.258,1.278,6.407,2.635,9.111,3.938
		c0.846,0.408,1.649,0.811,2.398,1.204c0.375,0.196,0.735,0.39,1.082,0.582c0.693,0.383,1.328,0.754,1.893,1.109
		c0.521,0.327,1.044,0.658,1.567,0.997c0.784,0.506,1.565,1.027,2.327,1.571c1.777,1.271,3.449,2.665,4.806,4.291
		c0.55,0.658,1.046,1.357,1.479,2.1c0.27-0.173,0.55-0.334,0.839-0.47l0.131-0.062c0.04-0.018,0.082-0.029,0.124-0.042
		c-0.116-0.605-0.24-1.212-0.382-1.818c-0.225-0.965-0.483-1.93-0.771-2.894c-0.144-0.482-0.295-0.964-0.454-1.444
		c-0.634-1.922-1.381-3.83-2.221-5.7c-0.419-0.934-0.862-1.859-1.325-2.771c-0.314-0.618-0.64-1.228-0.971-1.832
		c-0.717-1.309-1.472-2.585-2.258-3.818c-0.191-0.3-0.382-0.601-0.578-0.896c-0.029,0.017-0.058,0.031-0.086,0.049
		c-0.002-0.002-0.003-0.003-0.004-0.005c-0.32-0.302-0.658-0.584-1.003-0.856c-0.06-0.047-0.119-0.096-0.179-0.142
		c-0.336-0.256-0.683-0.497-1.039-0.724c-0.07-0.045-0.142-0.089-0.212-0.132c-0.367-0.227-0.742-0.44-1.126-0.636
		c-0.035-0.018-0.071-0.032-0.105-0.051c-0.374-0.185-0.756-0.354-1.144-0.51c-0.058-0.023-0.116-0.049-0.174-0.071
		c-0.397-0.154-0.802-0.29-1.21-0.412c-0.081-0.023-0.163-0.047-0.244-0.07c-0.411-0.115-0.826-0.217-1.244-0.298
		c-0.06-0.012-0.12-0.021-0.18-0.031c-0.41-0.075-0.823-0.136-1.238-0.178c-0.041-0.004-0.082-0.011-0.123-0.015
		c-0.429-0.04-0.86-0.058-1.292-0.062c-0.096-0.001-0.191-0.003-0.288-0.002c-0.219,0.002-0.438,0.012-0.657,0.023
		c-0.103,0.005-0.206,0.008-0.308,0.016c-0.32,0.023-0.639,0.056-0.956,0.101c-0.436,0.062-0.868,0.148-1.296,0.249
		c-3.422,0.801-6.552,2.806-8.719,5.572c-0.386,0.493-0.745,1.008-1.066,1.547c0.343,0.115,0.688,0.235,1.034,0.355
		C261.391,130.224,262.788,130.729,264.179,131.255z"/>
	<path fill="#F15A24" d="M234.185,166.97c1.546-0.663,3.096-1.333,4.683-2.067c4.35-2.013,8.931-3.429,13.583-4.615
		c0.931-0.237,1.863-0.466,2.798-0.688c1.87-0.443,3.745-0.862,5.616-1.28c3.398-0.758,6.8-1.517,10.211-2.222
		c5.327-1.101,10.678-2.062,16.073-2.696c0.016-0.11,0.026-0.22,0.047-0.33c0.197-1.042,0.614-2.061,1.2-2.96
		c-0.567-0.29-1.133-0.583-1.707-0.861c-0.301-0.146-0.606-0.283-0.909-0.426c-0.594-0.28-1.189-0.561-1.79-0.828
		c-0.364-0.163-0.732-0.316-1.099-0.475c-0.545-0.234-1.091-0.469-1.641-0.693c-0.392-0.16-0.787-0.313-1.181-0.468
		c-0.531-0.208-1.063-0.414-1.598-0.612c-0.407-0.151-0.816-0.297-1.225-0.442c-0.529-0.188-1.06-0.373-1.593-0.552
		c-0.415-0.139-0.831-0.274-1.247-0.408c-0.534-0.17-1.069-0.336-1.605-0.496c-0.418-0.126-0.836-0.25-1.256-0.37
		c-0.544-0.155-1.09-0.303-1.637-0.448c-0.415-0.11-0.829-0.222-1.245-0.326c-0.564-0.142-1.13-0.273-1.697-0.405
		c-0.401-0.093-0.802-0.188-1.204-0.276c-0.606-0.133-1.215-0.253-1.824-0.373c-0.365-0.072-0.729-0.149-1.094-0.217
		c-0.739-0.138-1.481-0.26-2.223-0.379c-0.238-0.039-0.475-0.084-0.712-0.12c-0.98-0.149-1.963-0.284-2.947-0.402
		c-0.259-0.032-0.519-0.055-0.778-0.083c-0.728-0.082-1.456-0.162-2.186-0.227c-0.366-0.032-0.733-0.056-1.1-0.084
		c-0.625-0.048-1.249-0.096-1.874-0.131c-0.402-0.023-0.804-0.037-1.206-0.055c-0.592-0.026-1.183-0.051-1.775-0.065
		c-0.418-0.011-0.836-0.015-1.255-0.02c-0.63-0.007-1.26-0.012-1.89-0.007c-0.247,0.003-0.493,0.005-0.74,0.009
		c-0.462,0.008-0.924,0.027-1.386,0.042s-0.924,0.021-1.385,0.042c-0.438,0.378-1.017,0.588-1.563,0.807
		c-2.318,0.931-4.409,2.397-6.11,4.225c-0.212,0.229-0.419,0.463-0.62,0.702c-0.601,0.719-1.144,1.484-1.621,2.289
		c-0.478,0.806-0.889,1.648-1.226,2.522c-0.112,0.291-0.216,0.585-0.312,0.883c-0.573,1.783-0.832,3.661-0.791,5.533
		c0.021,1.002,0.134,2.002,0.326,2.985c0.107,0.548,0.236,1.092,0.395,1.627c0.178,0.598,0.388,1.187,0.629,1.762
		c0.363,0.862,0.796,1.694,1.3,2.484c0.088,0.139,0.18,0.278,0.268,0.42c0.176,0.281,0.342,0.571,0.451,0.878
		c0.054,0.153,0.095,0.311,0.115,0.474c0.002,0.016,0.003,0.03,0.004,0.046c0.001,0.014,0.002,0.027,0.004,0.041
		c0.333-0.144,0.667-0.286,1-0.428C233.821,167.125,234.003,167.048,234.185,166.97z"/>
	<path fill="#42210B" d="M317.495,140.65c0.159-0.294,0.323-0.598,0.481-0.908c0.474-0.933,0.892-1.929,0.942-2.917
		c0.053-1.044-0.466-2.293-1.427-2.576c-1.347-0.397-2.779,1.059-4.127,2.691c-0.613,0.742-1.26,1.46-1.935,2.147
		c-0.675,0.688-1.379,1.345-2.106,1.968c0,0-0.001,0-0.001,0.001c-4.089,3.498-9.1,6.03-15.245,7.735
		c-0.524,0.146-1.042,0.295-1.583,0.429c-0.011,0.005-0.019,0.009-0.02,0.009c-0.225,0.105-0.444,0.229-0.653,0.366
		c-0.158,0.104-0.312,0.219-0.461,0.342c-0.281,0.232-0.544,0.495-0.783,0.783c-0.123,0.148-0.24,0.304-0.348,0.465
		c-0.465,0.688-0.791,1.477-0.943,2.279c-0.107,0.571-0.122,1.133-0.054,1.677c0.013,0.103,0.023,0.205,0.042,0.307
		c0.131,0.693,0.416,1.362,0.821,1.973c0.307,0.462,0.681,0.891,1.122,1.266c0.365,0.311,0.762,0.576,1.181,0.79
		c0.52,0.265,1.054,0.441,1.595,0.533c0.066,0.011,0.133,0.019,0.199,0.027c0.144,0.019,0.287,0.036,0.431,0.043
		c0.389,0.016,0.801-0.008,1.26-0.076c0.759-0.111,1.596-0.342,2.634-0.725c2.789-1.028,5.43-2.472,7.852-4.289
		c0.48-0.36,0.942-0.741,1.398-1.126c1.721-1.451,3.276-3.066,4.623-4.832c0.494-0.647,0.963-1.316,1.414-2.001
		C315.157,144.978,316.34,142.787,317.495,140.65z"/>
</g>
</svg>
